<svg id="icons" xmlns="http://www.w3.org/2000/svg" viewBox="0 0 64 64"><g id="BBQ"><path d="M58.81,17a4,4,0,0,0-5.71,0,1,1,0,0,0,1.36,1.37,2.11,2.11,0,0,1,3,3,2.18,2.18,0,0,1-3,0,1,1,0,0,0-.69-.29.94.94,0,0,0-.67.29l-3.45,3.44-1.56-1.57a2,2,0,0,0-2.72,0l-2.43,2.43A1.92,1.92,0,0,0,42.38,27a1.9,1.9,0,0,0,.56,1.35l.12.12H41.7a2.38,2.38,0,0,0-2.37,2.37v1.39l-.14-.13a1.91,1.91,0,0,0-2.71,0l-3.1,3.09a2,2,0,0,0-.4,2.13,5.12,5.12,0,0,0-3.19,1.48A5,5,0,0,0,28.31,42a1.94,1.94,0,0,0-2.11.39L23.67,45a1.9,1.9,0,0,0,0,2.7h0a7.83,7.83,0,0,0-2.61,1.87,7.16,7.16,0,0,0-1.95,2.83A3.1,3.1,0,0,0,19.47,55l-3.36,3.35A1,1,0,0,0,16.79,60a1,1,0,0,0,.68-.28l3.36-3.36a2.93,2.93,0,0,0,1.64.49c1.72,0,3.21-1.47,3.81-2.09a7.94,7.94,0,0,0,1.88-2.61h0a1.9,1.9,0,0,0,1.35.56,1.92,1.92,0,0,0,1.36-.56l2.52-2.53A1.87,1.87,0,0,0,34,48.28a2,2,0,0,0-.16-.77,5.07,5.07,0,0,0,4.66-4.68,1.84,1.84,0,0,0,.77.17,1.88,1.88,0,0,0,1.35-.56l3.1-3.1a1.92,1.92,0,0,0,0-2.71l-.09-.09,1,.08h.18A2.41,2.41,0,0,0,46.42,36a2.36,2.36,0,0,0,.77-1.74V32.63l.25.25a1.9,1.9,0,0,0,1.36.56,1.86,1.86,0,0,0,1.35-.56l2.43-2.42a2,2,0,0,0,.56-1.37,1.9,1.9,0,0,0-.56-1.35L51,26.18l2.84-2.85a4.13,4.13,0,0,0,5-.6A4,4,0,0,0,58.81,17ZM29.54,50.79,25,46.31l2.52-2.51L32,48.26Zm9.71-9.71-4.5-4.48,3.08-3.1L42.32,38Zm12-12-2.39,2.43L44.31,27l2.4-2.44Z"/><path d="M47,5.19a4,4,0,0,0-5.72,0,1,1,0,0,0,0,1.36,1,1,0,0,0,1.37,0,2.15,2.15,0,0,1,3,0,2.08,2.08,0,0,1,.62,1.5,2,2,0,0,1-.62,1.49,2.15,2.15,0,0,1-3,0A1,1,0,0,0,42,9.26a1,1,0,0,0-.68.28L37.83,13l-1.57-1.57a2,2,0,0,0-2.72,0l-2.42,2.43a1.91,1.91,0,0,0,0,2.7l.13.13H29.88a2.38,2.38,0,0,0-2.38,2.37v1.39l-.13-.13a1.91,1.91,0,0,0-2.71,0l-3.1,3.1a1.89,1.89,0,0,0-.4,2.12A5.06,5.06,0,0,0,18,27a5.16,5.16,0,0,0-1.47,3.19,1.93,1.93,0,0,0-2.12.4l-2.53,2.53a1.93,1.93,0,0,0,0,2.71h0a7.6,7.6,0,0,0-2.61,1.88,7.07,7.07,0,0,0-1.95,2.82,3.08,3.08,0,0,0,.35,2.63L4.28,46.53a1,1,0,0,0,0,1.36.91.91,0,0,0,.69.28.91.91,0,0,0,.68-.28L9,44.53a3,3,0,0,0,1.64.5c1.72,0,3.21-1.48,3.83-2.1a7.61,7.61,0,0,0,1.86-2.62l0,0a1.91,1.91,0,0,0,2.7,0l2.53-2.53a1.88,1.88,0,0,0,.56-1.35,2,2,0,0,0-.16-.77,5,5,0,0,0,3.19-1.47A5.12,5.12,0,0,0,26.65,31a1.91,1.91,0,0,0,.76.16,2,2,0,0,0,1.37-.56l3.09-3.1a1.91,1.91,0,0,0,0-2.71l-.08-.09,1,.08H33a2.37,2.37,0,0,0,2.38-2.38V20.8l.26.26a1.9,1.9,0,0,0,1.35.56,1.92,1.92,0,0,0,1.36-.56l2.43-2.43a1.94,1.94,0,0,0,.57-1.35,2,2,0,0,0-.57-1.37l-1.57-1.56L42,11.51a4,4,0,0,0,2.1.58A4,4,0,0,0,47,10.9,4,4,0,0,0,47,5.19ZM17.71,39l-4.5-4.48L15.72,32l4.49,4.47Zm9.71-9.72-4.5-4.48L26,21.67l4.49,4.49Zm12-12L37,19.69l-4.5-4.48,2.42-2.42Z"/></g></svg>