<svg id="icons" xmlns="http://www.w3.org/2000/svg" viewBox="0 0 64 64"><g id="bottle_of_water" data-name="bottle of water"><path d="M41.56,48.84H22.45c-.49,0-.4-1.43-.4-1.43a4.36,4.36,0,0,1,.55-2.13l1.46-2.6a2.34,2.34,0,0,0,.3-1.14V34.85a2.45,2.45,0,0,0-.25-1.05l-1.6-3.21a4.31,4.31,0,0,1-.46-1.95s.08-4.2.58-4.2H41.38c.5,0,.58,4.2.58,4.2a4.38,4.38,0,0,1-.46,2l-1.61,3.21a2.51,2.51,0,0,0-.24,1v6.69a2.46,2.46,0,0,0,.3,1.14l1.46,2.6A4.36,4.36,0,0,1,42,47.41S42.05,48.84,41.56,48.84Z"/><path d="M42,55.38a5.3,5.3,0,0,1-1.75,3.94,2.73,2.73,0,0,1-3.83-.3l-.72-.86a.88.88,0,0,0-.75-.32.9.9,0,0,0-.7.38,2.65,2.65,0,0,1-4.41,0,.93.93,0,0,0-1.45-.06l-.72.86a2.65,2.65,0,0,1-3.83.3,5.3,5.3,0,0,1-1.75-3.94s-.22-4.61.28-4.61H41.66C42.15,50.77,42,55.38,42,55.38Z"/><path d="M40.7,20.4,36,15.75a.86.86,0,0,0-.5-.25v-3h.21a2.06,2.06,0,0,0,2-2.09V7.2A3.17,3.17,0,0,0,34.63,4H29.46a3.16,3.16,0,0,0-3.13,3.2v3.23a2.06,2.06,0,0,0,2,2.09h.21v3a.92.92,0,0,0-.59.26L23.31,20.4c-.8.82-.86,2.11-.36,2.11H41.06C41.56,22.51,41.5,21.22,40.7,20.4ZM28.35,10.58c-.12,0-.21-.07-.21-.15V7.2a1.3,1.3,0,0,1,1.32-1.27h5.17A1.3,1.3,0,0,1,36,7.2v3.23c0,.08-.09.15-.21.15Zm5.38,4.91H30.37v-3h3.36Z"/></g></svg>