<svg id="icons" xmlns="http://www.w3.org/2000/svg" viewBox="0 0 64 64"><g id="burger"><path d="M56.21,44.18A3.64,3.64,0,0,1,52.78,48H10.1c-3.35.11-4.7-5.15-1.91-7a2.79,2.79,0,0,1,2,1.39,4,4,0,0,0,6.8,0A2.89,2.89,0,0,1,20,41c2.26.09,3,3.35,5.65,3.35S29,41.06,31.24,41a2.92,2.92,0,0,1,3,1.4,4,4,0,0,0,6.82,0,3.07,3.07,0,0,1,5.24,0c1.85,3.18,6.72,2.17,7.4-1.4h.95A3.94,3.94,0,0,1,56.21,44.18Z"/><path d="M55.92,38.46c-.91,1.1-4-.64-4.16,1.44a2,2,0,0,1-3.71,1.31,5.13,5.13,0,0,0-8.72,0,1.93,1.93,0,0,1-3.34,0,4.74,4.74,0,0,0-4-2.37,4.88,4.88,0,0,0-4.75,2.39,2,2,0,0,1-1.66,1,2,2,0,0,1-1.68-1,4.74,4.74,0,0,0-4-2.37,4.88,4.88,0,0,0-4.75,2.39,2,2,0,0,1-1.66,1,2,2,0,0,1-1.66-1A4.86,4.86,0,0,0,8,38.85c-1.54.15-1.77-2.41-.24-2.49H55A1.28,1.28,0,0,1,55.92,38.46Z"/><path d="M60,32.06v.2a2,2,0,0,1-1.93,2H5.93a2,2,0,0,1-1.93-2v-.2a2,2,0,0,1,1.93-2H58.07A2,2,0,0,1,60,32.06Z"/><path d="M43.28,16v3.43a1.3,1.3,0,1,1-2.57,0V16Z"/><path d="M22.17,16v3.43a1.3,1.3,0,1,1-2.57,0V16Z"/><path d="M32.73,16v3.43a1.3,1.3,0,1,1-2.58,0V16Z"/><path d="M56.21,26.2A1.66,1.66,0,0,1,54.67,28H8.2A1.67,1.67,0,0,1,6.65,26.2c0-4.86,3-8.53,8-9.83A12,12,0,0,1,17.52,16v3.42A3.49,3.49,0,0,0,20.88,23a3.49,3.49,0,0,0,3.36-3.61V16h3.84v3.43a3.37,3.37,0,1,0,6.72,0V16h3.84v3.43a3.37,3.37,0,1,0,6.72,0V16a12,12,0,0,1,2.87.36C53.24,17.67,56.21,21.34,56.21,26.2Z"/></g></svg>