<svg id="icons" xmlns="http://www.w3.org/2000/svg" viewBox="0 0 64 64"><path id="check" d="M59,5.93H5A1,1,0,1,0,5,7.86h6a17.45,17.45,0,0,1,3.79,10.89V54.54a2.17,2.17,0,0,0,1.36,2.05,2,2,0,0,0,2.3-.51l3.75-3.91a.17.17,0,0,1,.26,0l5,5.24a2.09,2.09,0,0,0,1.53.66,2.05,2.05,0,0,0,1.52-.66l5-5.24a.18.18,0,0,1,.27,0l5,5.19a2.1,2.1,0,0,0,3.06,0L49,52a.17.17,0,0,1,.14-.07s.08,0,.12.06l4.47,4.34a2.06,2.06,0,0,0,2.29.44,2.19,2.19,0,0,0,1.32-2V18.75A19.36,19.36,0,0,0,54,7.86h5a1,1,0,1,0,0-1.93ZM20.4,43.73a1,1,0,0,1,1-1H49.31a1,1,0,1,1,0,1.93H21.37A1,1,0,0,1,20.4,43.73Zm1-20.76h4.86a1,1,0,0,1,0,1.93H21.37a1,1,0,1,1,0-1.93Zm-1-6.21a1,1,0,0,1,1-1h4.86a1,1,0,0,1,0,1.93H21.37A1,1,0,0,1,20.4,16.76Zm1,18.83H49.31a1,1,0,1,1,0,1.93H21.37a1,1,0,1,1,0-1.93ZM31.65,23.94a1,1,0,0,1,1-1H49.31a1,1,0,1,1,0,1.93H32.62A1,1,0,0,1,31.65,23.94Zm17.66-6.21H32.62a1,1,0,1,1,0-1.93H49.31a1,1,0,1,1,0,1.93Z"/></svg>