<svg id="icons" xmlns="http://www.w3.org/2000/svg" viewBox="0 0 64 64"><g id="chef"><path d="M50.11,45.14v10.5a.2.2,0,0,1-.18.21H14a.2.2,0,0,1-.18-.21V45.14a.2.2,0,0,1,.18-.22H49.93A.2.2,0,0,1,50.11,45.14Z"/><path d="M59.89,24.05c-1.29,8.71-8.84,17.13-10.4,18.8H41.26l4-6.57a1,1,0,0,0-.34-1.42,1.05,1.05,0,0,0-1.43.36l-4.62,7.63H25.07l-4.61-7.63A1.05,1.05,0,0,0,19,34.86a1,1,0,0,0-.35,1.42l4,6.57H14.45C12.9,41.18,5.39,32.76,4.11,24.05a9.54,9.54,0,0,1,4.78-9.93,8,8,0,0,1,8,.1,2,2,0,0,1,1,1.77v7.63a1,1,0,0,0,2.08,0V15.39a2,2,0,0,1,.37-1.19,14.21,14.21,0,0,1,23.28,0A2,2,0,0,1,44,15.41v8.21a1,1,0,1,0,2.07,0V16a2.06,2.06,0,0,1,1-1.76,8,8,0,0,1,8.06-.15A9.54,9.54,0,0,1,59.89,24.05Z"/></g></svg>