<svg id="icons" xmlns="http://www.w3.org/2000/svg" viewBox="0 0 64 64"><g id="chips"><path d="M60,27.67c0,6.16-3.54,12.36-5.66,15.5A6.42,6.42,0,0,1,49,46a6.5,6.5,0,0,1-4.85-2.17,23.8,23.8,0,0,0-8.36-6.16c-2.09,1.93-4,3.47-5.46,4.57a2.65,2.65,0,0,1-2.67.31,2.44,2.44,0,0,1-1.49-2,5.26,5.26,0,0,1,.56-3,5.61,5.61,0,0,1,5.91-2.74,17.64,17.64,0,0,1,2.67.65,55.14,55.14,0,0,0,9.35-11.52A8.5,8.5,0,0,1,47,21.32a9,9,0,0,1,3.27-1.44,8.31,8.31,0,0,1,6.55,1.33A7.47,7.47,0,0,1,60,27.67Z"/><path d="M37.85,24.84a2.43,2.43,0,0,1-1.49,2,2.67,2.67,0,0,1-2.67-.3c-1.45-1.11-3.37-2.65-5.46-4.58a23.83,23.83,0,0,0-8.36,6.16,6.51,6.51,0,0,1-10.21-.64C7.54,24.33,4,18.14,4,12A7.47,7.47,0,0,1,7.17,5.51a8.3,8.3,0,0,1,6.55-1.32,8.57,8.57,0,0,1,5.64,4,49,49,0,0,0,4.5,6.33,63.28,63.28,0,0,0,4.85,5.18,17.64,17.64,0,0,1,2.67-.65,5.64,5.64,0,0,1,5.91,2.74A5.26,5.26,0,0,1,37.85,24.84Z"/><path d="M36,58.26a2.45,2.45,0,0,1-1.86,1.68,2.83,2.83,0,0,1-.57.06,2.62,2.62,0,0,1-2-.89,70.41,70.41,0,0,1-4.43-5.54A24.22,24.22,0,0,0,17.68,58a6.56,6.56,0,0,1-5.19,1.19,6.42,6.42,0,0,1-4.7-3.81C6.36,51.89,4.14,45.13,5.38,39.09a7.57,7.57,0,0,1,4.41-5.72,8.32,8.32,0,0,1,6.72,0,8.56,8.56,0,0,1,4.7,5,48.13,48.13,0,0,0,3.11,7.08,63.73,63.73,0,0,0,3.7,6,17.92,17.92,0,0,1,2.75-.11A5.58,5.58,0,0,1,36,55.2,5.16,5.16,0,0,1,36,58.26Z"/></g></svg>