<svg id="icons" xmlns="http://www.w3.org/2000/svg" viewBox="0 0 64 64"><g id="coffee"><path d="M49.14,26.13v2a.49.49,0,0,1-.49.49H6.48A.49.49,0,0,1,6,28.16v-2A1.15,1.15,0,0,1,7.12,25H48A1.15,1.15,0,0,1,49.14,26.13Z"/><path d="M49.11,31.12C48.86,42.67,40,50.34,37.7,52.37H17.44C10.86,48,6.49,39.86,6,31.14a.5.5,0,0,1,.49-.53H48.62A.5.5,0,0,1,49.11,31.12Z"/><path d="M57.71,39.1A10.25,10.25,0,0,1,47.62,47a12.83,12.83,0,0,1-1.73-.13c.4-.6.78-1.22,1.13-1.85a8.39,8.39,0,0,0,8.83-6.35,8.81,8.81,0,0,0-4.79-9.85V26.65A10.77,10.77,0,0,1,57.71,39.1Z"/><path d="M25.32,17.63a.93.93,0,0,1-.62-.24A1,1,0,0,1,24.59,16l.83-1a3.71,3.71,0,0,0,.82-3.37,3.29,3.29,0,0,0-.16-.44c-.09-.22-.17-.45-.24-.68a5.71,5.71,0,0,1,1.21-5.21l.82-1a1,1,0,0,1,1.36-.1,1,1,0,0,1,.1,1.38l-.82,1A3.72,3.72,0,0,0,27.68,10c.05.15.1.3.16.45a5.4,5.4,0,0,1,.25.67,5.74,5.74,0,0,1-1.21,5.21l-.83,1A1,1,0,0,1,25.32,17.63Z"/><path d="M20.9,16.26a.94.94,0,0,1-.63-.23,1,1,0,0,1-.1-1.39l.64-.76a2.53,2.53,0,0,0,.66-2,2.57,2.57,0,0,0-.2-.72A4.93,4.93,0,0,1,20.93,10,4.52,4.52,0,0,1,22,6.47l.64-.77A1,1,0,0,1,24,5.6,1,1,0,0,1,24.14,7l-.64.76a2.52,2.52,0,0,0-.66,1.94,2.64,2.64,0,0,0,.2.73,4.75,4.75,0,0,1,.34,1.24,4.54,4.54,0,0,1-1.11,3.5l-.64.76A.94.94,0,0,1,20.9,16.26Z"/><path d="M30.53,16.26a.92.92,0,0,1-.62-.23,1,1,0,0,1-.11-1.39l.65-.76a2.61,2.61,0,0,0,.66-2,2.57,2.57,0,0,0-.2-.72,4.44,4.44,0,0,1,.76-4.74l.65-.77a1,1,0,0,1,1.36-.1A1,1,0,0,1,33.78,7l-.65.76a2.6,2.6,0,0,0-.66,1.94,3,3,0,0,0,.2.73A4.87,4.87,0,0,1,33,11.66a4.58,4.58,0,0,1-1.11,3.5l-.65.76A.94.94,0,0,1,30.53,16.26Z"/><path d="M53.12,55.13l-.64.8a3.08,3.08,0,0,1-.8.73A22.44,22.44,0,0,1,39.84,60H20.33A22.38,22.38,0,0,1,8.5,56.66a3.12,3.12,0,0,1-.81-.73l-.63-.8a.49.49,0,0,1,.37-.8H52.74A.5.5,0,0,1,53.12,55.13Z"/></g></svg>