<svg id="icons" xmlns="http://www.w3.org/2000/svg" viewBox="0 0 64 64"><g id="cookie"><path d="M55,23.8c-.18-.95-.34-1.8-.44-2.65-.69-6.38-6.82-11.26-11.83-14.23A20.45,20.45,0,0,0,32.35,4.07H30A20.41,20.41,0,0,0,16.86,8.85c-.95.81-2,1.59-3.08,2.35A19.8,19.8,0,0,0,9.34,15C6.77,18.67,6,24.18,6,24.41a.62.62,0,0,0,0,.13c0,27.3,25,28.35,25.3,28.35h0a1,1,0,0,0,.67-.27,1,1,0,0,0,.29-.7V29.81L51,39.26A1,1,0,0,0,52.16,39C56.33,34.24,55.76,27.43,55,23.8ZM42.27,19.16a1.17,1.17,0,0,1-.27,0,1,1,0,0,1-.92-.7A5.62,5.62,0,0,0,37.44,15,1,1,0,0,1,38,13.17a7.62,7.62,0,0,1,5,4.8A1,1,0,0,1,42.27,19.16Zm-5.85,4.77a1,1,0,0,1,1.13-.76,7.66,7.66,0,0,1,5.36,4.36,1,1,0,0,1-.56,1.24.84.84,0,0,1-.35.07,1,1,0,0,1-.89-.61,5.7,5.7,0,0,0-3.93-3.17A1,1,0,0,1,36.42,23.93Zm12.31,5.8a1,1,0,0,1-1,.95h0a1,1,0,0,1-1-1,7.45,7.45,0,0,1,3.31-6,1,1,0,0,1,1,1.65A5.45,5.45,0,0,0,48.73,29.73ZM12.3,23.19A7.65,7.65,0,0,1,18,19.32a1,1,0,1,1,.16,1.91A5.87,5.87,0,0,0,14,24.08a.94.94,0,0,1-.84.51,1.06,1.06,0,0,1-.46-.1A1,1,0,0,1,12.3,23.19Zm10.41-7.51a1,1,0,0,1-.71-.31A1,1,0,0,1,22.05,14a7.75,7.75,0,0,1,6.7-1.79,1,1,0,0,1,.71,1.18,1,1,0,0,1-1.18.69,5.86,5.86,0,0,0-4.92,1.34A1,1,0,0,1,22.71,15.68ZM25.92,43a1,1,0,0,1-.55,1.26,1,1,0,0,1-.34.05,1,1,0,0,1-.9-.61,5.82,5.82,0,0,0-3.94-3.17,1,1,0,0,1,.38-1.89A7.62,7.62,0,0,1,25.92,43ZM14.38,35.39a7.54,7.54,0,0,1,4.52-5.2,1,1,0,0,1,1.24.59A1,1,0,0,1,19.55,32a5.6,5.6,0,0,0-3.29,3.79,1,1,0,0,1-.94.76l-.21,0A1,1,0,0,1,14.38,35.39Zm11-8.9a.93.93,0,0,1-.82.46.91.91,0,0,1-.5-.13,1,1,0,0,1-.32-1.31,7.57,7.57,0,0,1,5.92-3.57,1,1,0,0,1,1,.92,1,1,0,0,1-.93,1A5.83,5.83,0,0,0,25.42,26.49Z"/><path d="M58,45.85a1,1,0,0,0-.51-.59S35.24,34.71,35,34.88s.68,24,.68,24a.85.85,0,0,0,0,.32,1,1,0,0,0,.93.71h.08A26.58,26.58,0,0,0,57.86,46.62.87.87,0,0,0,58,45.85ZM47.62,46.91a7.6,7.6,0,0,1-5.1,4.65.83.83,0,0,1-.22,0,1,1,0,0,1-.22-1.91,5.58,5.58,0,0,0,3.72-3.41A1,1,0,0,1,47,45.68,1,1,0,0,1,47.62,46.91Z"/></g></svg>