<svg id="icons" xmlns="http://www.w3.org/2000/svg" viewBox="0 0 64 64"><g id="dish"><path d="M34.11,16A16.2,16.2,0,0,0,17.76,32a16.35,16.35,0,0,0,32.7,0A16.2,16.2,0,0,0,34.11,16Zm0,26.78A10.78,10.78,0,1,1,45.13,32,10.91,10.91,0,0,1,34.11,42.78Z"/><path d="M43.2,32a9.09,9.09,0,1,1-9.09-8.89A9,9,0,0,1,43.2,32Z"/><path d="M9.82,47.23a4.11,4.11,0,0,1-3-1.28,3.94,3.94,0,0,1-1.06-3l1-11.37a3.7,3.7,0,0,0-1.1-2.94,5.46,5.46,0,0,1-1.67-4V16.94a1,1,0,0,1,1.93,0v7.71A3.62,3.62,0,0,0,7,27.27,5.53,5.53,0,0,1,8.69,31.7l-1,11.37a2.08,2.08,0,0,0,.56,1.61,2.23,2.23,0,0,0,3.15,0A2.08,2.08,0,0,0,12,43.07L11,31.7a5.53,5.53,0,0,1,1.65-4.43,3.66,3.66,0,0,0,1.11-2.62V16.94a1,1,0,0,1,1.93,0v7.71a5.48,5.48,0,0,1-1.67,4,3.7,3.7,0,0,0-1.1,2.94l1,11.37a3.94,3.94,0,0,1-1.06,3A4.11,4.11,0,0,1,9.82,47.23Z"/><path d="M8.22,24.78a1,1,0,0,1-1-.94v-6.9a1,1,0,0,1,1.93,0v6.9A1,1,0,0,1,8.22,24.78Z"/><path d="M11.43,24.78a1,1,0,0,1-1-.94v-6.9a1,1,0,0,1,1.93,0v6.9A1,1,0,0,1,11.43,24.78Z"/><path d="M59.35,16.05a1,1,0,0,0-1.08.31l-2.86,3.57A15.62,15.62,0,0,0,52,29.63a3.88,3.88,0,0,0,1.17,2.79c.58.75.85,5.43.48,6.31l0,.09-1.52,5a1.09,1.09,0,0,0,0,.26,4,4,0,0,0,7.94,0V16.94A.94.94,0,0,0,59.35,16.05ZM58.07,44.12a2,2,0,0,1-4.07.12l1.46-4.85c.54-1.44.36-7-.91-8.28a2.13,2.13,0,0,1-.62-1.48,13.74,13.74,0,0,1,3-8.53l1.14-1.42Z"/></g></svg>