<svg id="icons" xmlns="http://www.w3.org/2000/svg" viewBox="0 0 64 64"><g id="fast_food" data-name="fast food"><path d="M42.59,38.06c-4.67,0-8.55,1.16-11.31,3.27a.54.54,0,0,1-.16.14,11.23,11.23,0,0,0-4,6.05.32.32,0,0,0,.06.26.24.24,0,0,0,.21.12H57.78a.23.23,0,0,0,.21-.11.28.28,0,0,0,0-.22C56.51,41.61,50.73,38.06,42.59,38.06Zm-4.66,9a1,1,0,0,1-1-1,0,0,0,0,0,0,0,1.07,1.07,0,0,1-1.05,1.06,1,1,0,0,1-1.06-1A2.12,2.12,0,0,1,39,46,1,1,0,0,1,37.93,47.06Zm1.29-4.92a0,0,0,0,0,0,0,1.07,1.07,0,0,1-1.06,1.06,1.05,1.05,0,0,1-1.06-1,2.12,2.12,0,0,1,4.23,0,1,1,0,1,1-2.07,0Zm4.63,4.92a1,1,0,0,1-1-1s0,0,0,0a1.06,1.06,0,0,1-2.11,0,2.12,2.12,0,0,1,4.23,0A1,1,0,0,1,43.85,47.06Zm2.33-4.92s0,0,0,0a1.06,1.06,0,0,1-2.11,0,2.12,2.12,0,0,1,4.23,0,1,1,0,1,1-2.07,0Zm3.59,4.92a1,1,0,0,1-1-1,0,0,0,0,0,0,0,1.07,1.07,0,0,1-1.06,1.06,1.05,1.05,0,0,1-1.06-1,2.12,2.12,0,0,1,4.23,0A1,1,0,0,1,49.77,47.06Z"/><path d="M60,51.35a1.38,1.38,0,0,1-1.38,1.39H26.93a1.39,1.39,0,1,1,0-2.77H58.62A1.38,1.38,0,0,1,60,51.35Z"/><path d="M57.55,54.81v1.64A3.57,3.57,0,0,1,54,60H31.57A3.57,3.57,0,0,1,28,56.45V54.81Z"/><path d="M33.78,19.27a1.25,1.25,0,0,1-1.26,1.24H5.27a1.25,1.25,0,1,1,0-2.49H32.52A1.25,1.25,0,0,1,33.78,19.27Z"/><path d="M30.84,22.58,29.57,40.09A13.13,13.13,0,0,0,25.15,47a2.25,2.25,0,0,0,.05,1.36,3.46,3.46,0,0,0,.71,6.3v1.79a5.54,5.54,0,0,0,1.18,3.43,1.81,1.81,0,0,1-.67.12H11.36a1.83,1.83,0,0,1-1.82-1.67L6.93,22.58Z"/><path d="M28.83,16H9a2.15,2.15,0,0,1,1.89-1.09h16A2.15,2.15,0,0,1,28.83,16Z"/><path d="M14.71,12.78H13.14L11.51,4.21A1,1,0,0,1,12.2,4a1.22,1.22,0,0,1,.72.2Z"/></g></svg>