<svg id="icons" xmlns="http://www.w3.org/2000/svg" viewBox="0 0 64 64"><g id="food_bag" data-name="food bag"><path d="M55.85,18.1V57.4A2.6,2.6,0,0,1,53.27,60H10.73a2.6,2.6,0,0,1-2.58-2.6V18.1a.17.17,0,0,1,.16-.18H55.69A.17.17,0,0,1,55.85,18.1Z"/><path d="M41.82,11.06v4.79H39.29V8.71a1,1,0,0,0,0-.24.62.62,0,0,0-.07-.19.06.06,0,0,0,0,0l-.07-.12a1,1,0,0,0-.86-.45H25.75a1,1,0,0,0-.86.45l0,.05a0,0,0,0,0,0,0,1.36,1.36,0,0,0-.09.23.93.93,0,0,0,0,.27v7.15H22.18V11.16c0-1.82.51-2.14,2-3.06.33-.2.69-.41,1.07-.67l0,0L29,5l.19-.12a5.48,5.48,0,0,1,5.9.06l.2.12,3.38,2.31.1.08c.4.28.77.5,1.11.72C41.39,9,41.82,9.3,41.82,11.06Z"/></g></svg>