<svg id="icons" xmlns="http://www.w3.org/2000/svg" viewBox="0 0 64 64"><g id="ice_cream_cone" data-name="ice cream cone"><path d="M46,39.12H18c0-1.91,0-7,0-7a.11.11,0,0,1,.11-.11H45.89a.1.1,0,0,1,.11.11"/><path d="M45.37,27.94a7.72,7.72,0,0,1-.27,1.93H20a2.27,2.27,0,0,1,.18-1.53l.08-.11a.22.22,0,0,0,.09-.07,1.59,1.59,0,0,1,.95-.25c6.53-.17,14.68-4.56,15-4.75a1.06,1.06,0,0,0,.42-1.45,1.08,1.08,0,0,0-1.44-.43c-.08,0-8,4.34-14.08,4.5a3.92,3.92,0,0,0-.88.11,4,4,0,0,1,.55-2.27,6.58,6.58,0,0,1,1.78-1.92l0,0C25,20,29.2,18.35,37.22,17.6l.42,0h0a4.59,4.59,0,0,1,4.19,2.55,3.08,3.08,0,0,1,0,2.62.7.7,0,0,0-.09.17,9.59,9.59,0,0,1-4,3.56,1.08,1.08,0,0,0-.39,1.46,1.05,1.05,0,0,0,.93.54,1.13,1.13,0,0,0,.53-.14,13,13,0,0,0,4.39-3.74A3,3,0,0,1,44.94,26,4.15,4.15,0,0,1,45.37,27.94Z"/><path d="M37,15.48q-9.23.87-14,3.49a5,5,0,0,1,3.17-4.21h0c1-.22,5.9-1.48,7.91-3.21a1.07,1.07,0,0,0-1.4-1.62c-1.18,1-4.21,2-6.08,2.53a3.43,3.43,0,0,1,1.58-3.58,10.8,10.8,0,0,0,3.94-4.82,17.91,17.91,0,0,0,4.75,5.88C38.83,11.28,37.59,14.29,37,15.48Z"/><polygon points="23.39 45.15 20.94 47.2 20.51 42.71 23.39 45.15"/><polygon points="28.01 41.26 25.05 43.75 22.09 41.26 28.01 41.26"/><polygon points="42.44 53.6 41.99 58.09 39.56 56.02 42.44 53.6"/><path d="M40.87,59.93l-.23,0H34.89l3-2.54Z"/><polygon points="29.86 50.61 25.11 54.63 21.37 51.49 21.2 49.77 25.05 46.54 29.86 50.61"/><polygon points="36.25 56.02 31.57 59.95 31.43 59.95 26.76 56.03 31.52 52.02 36.25 56.02"/><path d="M28.11,60H23.37a1.32,1.32,0,0,1-.87-.33l2.6-2.2Z"/><polygon points="23.45 56.03 21.93 57.31 21.67 54.52 23.45 56.03"/><polygon points="36.32 45.17 31.52 49.23 26.7 45.15 31.31 41.26 31.68 41.26 36.32 45.17"/><polygon points="40.97 41.26 37.98 43.77 34.99 41.26 40.97 41.26"/><polygon points="43.59 41.84 42.98 47.99 39.64 45.17 43.59 41.84"/><polygon points="42.73 50.57 37.91 54.62 33.17 50.63 37.98 46.56 42.73 50.57"/></g></svg>