<svg id="icons" xmlns="http://www.w3.org/2000/svg" viewBox="0 0 64 64"><g id="ice_cream" data-name="ice cream"><path d="M53.94,39.42,50.17,58.51A1.87,1.87,0,0,1,48.32,60H15.68a1.87,1.87,0,0,1-1.85-1.49L10.08,39.42Z"/><path d="M57.93,35.73a1.38,1.38,0,0,1-.59,1.07,2.65,2.65,0,0,1-1.64.54H8.3c-1.2,0-2.23-.73-2.23-1.61a1.38,1.38,0,0,1,.56-1,2.61,2.61,0,0,1,1.67-.56H55.7C56.9,34.13,57.93,34.86,57.93,35.73Z"/><path d="M28.29,24a12.51,12.51,0,0,0-4.6,2.57l-.05.05a12.23,12.23,0,0,0-3.56,5.46H9.15a10,10,0,0,1-.7-3.67A10.35,10.35,0,0,1,18.88,18.14a12.51,12.51,0,0,1,1.63.11A10.35,10.35,0,0,1,28.29,24Z"/><path d="M41.72,32.05H22.28a10.38,10.38,0,0,1,7.54-6.33l.24-.06a10.53,10.53,0,0,1,8.87,2.43A10.23,10.23,0,0,1,41.72,32.05Z"/><path d="M41.34,14.37a12.27,12.27,0,0,0-7.29,9.22,12.65,12.65,0,0,0-3.68-.07,12.44,12.44,0,0,0-8.48-7.11,10.47,10.47,0,0,1,19.45-2Z"/><path d="M56.78,25.64a10,10,0,0,1-2.3,6.41H43.92a12.23,12.23,0,0,0-3.62-5.51,12.47,12.47,0,0,0-4.23-2.44,10.22,10.22,0,0,1,7-8.16h0a10.14,10.14,0,0,1,3.27-.52A10.34,10.34,0,0,1,56.78,25.64Z"/><path d="M56.14,6.66,51.7,14.52a12,12,0,0,0-3.63-1.06l4.86-8.54a1.82,1.82,0,0,1,1.14-.86,1.85,1.85,0,0,1,1.45.22A1.78,1.78,0,0,1,56.14,6.66Z"/></g></svg>