<svg id="icons" xmlns="http://www.w3.org/2000/svg" viewBox="0 0 64 64"><g id="juice"><polygon points="48 31.6 16 31.6 18.57 28.02 45.43 28.02 48 31.6"/><path d="M44.81,33.6,41.58,59.83a.22.22,0,0,1-.22.17H22.64a.21.21,0,0,1-.22-.17L19.19,33.6H29.63L27.92,55.1a1,1,0,0,0,.91,1.07h.08a1,1,0,0,0,1-.92L31.64,33.6Z"/><path d="M31,16.94,30.22,26H19.06a9.06,9.06,0,0,1,2.78-6.35,9.66,9.66,0,0,1,6.72-2.73Z"/><path d="M44.94,26H32.24L33,16.94h2.48a9.51,9.51,0,0,1,6.72,2.73A9.06,9.06,0,0,1,44.94,26Z"/><path d="M45.5,7.67a1,1,0,0,1-1.25.66L37.1,6.12a2.73,2.73,0,0,0-2.34.35,2.53,2.53,0,0,0-1.11,1.91L33,16.94H31l.7-8.72a4.52,4.52,0,0,1,2-3.4,4.67,4.67,0,0,1,4-.61l7.15,2.21A1,1,0,0,1,45.5,7.67Z"/></g></svg>