<svg id="icons" xmlns="http://www.w3.org/2000/svg" viewBox="0 0 64 64"><g id="milk_shake" data-name="milk shake"><path d="M41.91,43.93v15.9c0,.08-.1.17-.24.17H39.38V44.86a4.81,4.81,0,0,0,1.42-.41Z"/><path d="M19.86,44.8V60H17.47c-.14,0-.24-.09-.24-.17V43.94l.88.42A4.31,4.31,0,0,0,19.86,44.8Z"/><path d="M28.57,44.51V60H21.86V44.49a4.53,4.53,0,0,0,1.19-.68l.19-.15a2.69,2.69,0,0,1,3.13-.14l.47.3A4.69,4.69,0,0,0,28.57,44.51Z"/><path d="M37.38,44.68V60H30.57V44.45a4.82,4.82,0,0,0,1.67-.82,2.72,2.72,0,0,1,3.15-.07l.75.52A4.19,4.19,0,0,0,37.38,44.68Z"/><path d="M45.14,24.19v14.6l-3,2.81-2.22,1a2.71,2.71,0,0,1-2.68-.21l-.75-.52A4.73,4.73,0,0,0,31,42a2.71,2.71,0,0,1-3.09.11l-.47-.31a4.75,4.75,0,0,0-5.48.25l-.19.15a2.69,2.69,0,0,1-2.83.31l-2.31-1.09L14,39V24.19Z"/><path d="M42.86,22.19H15.6a7.27,7.27,0,0,1,1.15-5.1,5,5,0,0,1,3.46-1.69A9.39,9.39,0,0,0,20.74,19a1,1,0,0,0,1,.68A.91.91,0,0,0,22,19.6a1,1,0,0,0,.62-1.27c-1.62-4.68,1.66-8,3.76-9.62a.29.29,0,0,1,.24,0,.21.21,0,0,1,.15.12,21.22,21.22,0,0,0,3.89,6,27.76,27.76,0,0,0,5.41,4.68,1,1,0,0,0,1.06-1.7,26.24,26.24,0,0,1-3.25-2.58l1,.11c3,.42,5.19,1.43,6.55,3A6.19,6.19,0,0,1,42.86,22.19Z"/><path d="M49.9,9.17a1,1,0,0,1-1.34.45L41.8,6.3a2.85,2.85,0,0,0-2.47,0,2.52,2.52,0,0,0-1.44,1.65l-1.54,5.67a16.92,16.92,0,0,0-2-.31L36,7.38a4.56,4.56,0,0,1,2.55-2.95,4.87,4.87,0,0,1,4.17.07l6.76,3.33A1,1,0,0,1,49.9,9.17Z"/></g></svg>