<svg id="icons" xmlns="http://www.w3.org/2000/svg" viewBox="0 0 64 64"><g id="muffin"><path d="M54.2,39.92l-2,14.81A1.47,1.47,0,0,1,50.75,56h-3.1l2.13-15.89h1.74A17,17,0,0,0,54.2,39.92Z"/><path d="M15.22,56h-3a1.48,1.48,0,0,1-1.46-1.27L8.89,40.67a23.17,23.17,0,0,0,4.3.24Z"/><path d="M21.81,56H17.3l-2-15.21a24.14,24.14,0,0,0,3.66-.71c.24-.06.48-.14.7-.21Z"/><path d="M27.87,40.55V56h-4L21.62,39.14c.38-.17.69-.31.92-.43,1.27.52,2.5,1,3.68,1.36Z"/><path d="M33.79,41.71V56H30V41.08A31,31,0,0,0,33.79,41.71Z"/><path d="M41,41.37,39,56H35.87V41.84h.51A20.3,20.3,0,0,0,41,41.37Z"/><path d="M47.7,40.11,45.56,56h-4.5l2.08-15.27c.46-.18.92-.38,1.39-.62Z"/><path d="M59.33,29.21c-1.71-3.82-6-6.29-7.91-7.21a15.38,15.38,0,0,1-.85,4.6,1,1,0,0,1-1.34.6,1.06,1.06,0,0,1-.59-1.35s1.87-5.06-.42-9.74c-1.59-3.25-4.8-5.62-9.54-7.06C22.94,4.29,16.4,17.23,16.12,17.78a1,1,0,0,1-1,.58c-3.07-.12-5.17.63-6.22,2.22s-1,3.65-.7,5.58c0,0,0,.07,0,.1A17.39,17.39,0,0,0,9.36,30a1,1,0,0,1-.52,1.38,1,1,0,0,1-.42.09,1,1,0,0,1-1-.62,19.66,19.66,0,0,1-1-3.05,4,4,0,0,0-1.91,1.74c-1.11,2.11-.32,5.21.25,6.87a2.43,2.43,0,0,0,1.7,1.61c.48.14.89.22,1.3.32a22.55,22.55,0,0,0,6.12.43H14a.15.15,0,0,0,.09,0,20.07,20.07,0,0,0,4.27-.72,15.57,15.57,0,0,0,1.78-.58h0a12.24,12.24,0,0,0,1.75-.8,1,1,0,0,1,.92-.07c1.38.57,2.72,1.07,4,1.48.76.25,1.5.45,2.21.65a.16.16,0,0,1,.1,0h0a30.66,30.66,0,0,0,5.6,1H35A18.52,18.52,0,0,0,41.82,39l0,0a12.46,12.46,0,0,0,1.94-.81l.07,0A9.82,9.82,0,0,0,48,34.39a1,1,0,1,1,1.85.93A9.73,9.73,0,0,1,47.63,38h3.89c3.76,0,6.41-1,7.68-3A6.07,6.07,0,0,0,59.33,29.21Zm-42.08-.7A2.56,2.56,0,1,1,19.81,26,2.56,2.56,0,0,1,17.25,28.51ZM33,32a2.56,2.56,0,1,1,2.57-2.55A2.57,2.57,0,0,1,33,32Zm5.13-12.21a2.56,2.56,0,1,1,2.56-2.55A2.55,2.55,0,0,1,38.11,19.77ZM53.58,33.63a2.56,2.56,0,1,1,2.56-2.56A2.56,2.56,0,0,1,53.58,33.63Z"/></g></svg>