<svg id="icons" xmlns="http://www.w3.org/2000/svg" viewBox="0 0 64 64"><g id="noodles"><path d="M42.4,47.44V49.6a.43.43,0,0,1-.47.4H22.08a.42.42,0,0,1-.46-.4V47.44Z"/><path d="M59.43,31.93a29.52,29.52,0,0,1-15.2,13.86c-.2-.21-24.25-.21-24.44,0A29.52,29.52,0,0,1,4.57,31.93Z"/><path d="M60,27.6v1.83a.51.51,0,0,1-.52.5h-55a.51.51,0,0,1-.52-.5V27.6a.42.42,0,0,1,.45-.38H59.63A.4.4,0,0,1,60,27.6Z"/><path d="M37.82,25.22h-3a6.13,6.13,0,0,0-6.31,0h-3C28.32,21.44,34.92,21.41,37.82,25.22Z"/><path d="M42.33,25.22H40.1c-3-6.78-14-6.79-16.93,0H20.93C24.07,15.84,39.22,15.84,42.33,25.22Z"/><path d="M43.77,17.37a12.89,12.89,0,0,0-2.34.21,12.88,12.88,0,0,1,1.79,1.83,11.26,11.26,0,0,1,9.54,5.81h-2.4a9.2,9.2,0,0,0-5.69-3.63A12.59,12.59,0,0,1,46,25.22H43.83a10.66,10.66,0,0,0-2-4.24c-5.74-8.19-20.46-5.56-22.41,4.24H17.32a12.77,12.77,0,0,1,2-4.88,9,9,0,0,0-6.13,4.88H11a11.16,11.16,0,0,1,10.29-7.14,12.06,12.06,0,0,1,2.21-1.73C16.84,14.73,9.67,19,8.39,25.22H6.28c1.36-8.36,11.61-13.56,19.83-10.17a15.36,15.36,0,0,1,13.13,1c7.59-2.45,16.47,1.85,18.51,9.18H55.58A12.35,12.35,0,0,0,43.77,17.37Z"/></g></svg>