<svg id="icons" xmlns="http://www.w3.org/2000/svg" viewBox="0 0 64 64"><g id="pie"><path d="M59.6,53.84a.54.54,0,0,1,.39.52L60,56a.14.14,0,0,1-.14,0L7.73,42.47a1.23,1.23,0,0,1-.94-1.18V33.91a6.89,6.89,0,0,0,2.08.31h.18v4.11a3.31,3.31,0,0,0,2.51,3.2Z"/><path d="M60,46.59v4.52a.53.53,0,0,1-.65.51L12.08,39.49a1.21,1.21,0,0,1-1-1.17V33.86c.25-.09.49-.18.74-.29L59.61,46.08A.53.53,0,0,1,60,46.59Z"/><path d="M36.92,13.72a5.94,5.94,0,0,1-8.5,5.14,1,1,0,0,0-1.37.45,4.94,4.94,0,0,1-5.51,2.47,1,1,0,0,0-.8.14,1.07,1.07,0,0,0-.45.67,4.86,4.86,0,0,1-4.8,3.81,3.56,3.56,0,0,1-.57,0,1,1,0,0,0-.82.27,1.09,1.09,0,0,0-.36.81,4.71,4.71,0,0,1-2.44,4.08l-1.47.53a5.08,5.08,0,0,1-3.5-.6l0,0a4.64,4.64,0,0,1-2.28-4,4.8,4.8,0,0,1,4.87-4.7,5.09,5.09,0,0,1,.56,0,1.07,1.07,0,0,0,1.19-1.08A4.78,4.78,0,0,1,15.49,17a5,5,0,0,1,1.15.13,1.07,1.07,0,0,0,.8-.14,1.11,1.11,0,0,0,.46-.67,4.83,4.83,0,0,1,4.79-3.8,4.73,4.73,0,0,1,1.37.19A1,1,0,0,0,25.34,12a5.95,5.95,0,0,1,11.58,1.68Z"/><path d="M38,18.68a.52.52,0,0,0-.8,0,8.12,8.12,0,0,1-8.42,2.51.5.5,0,0,0-.55.18A7,7,0,0,1,22.41,24a.51.51,0,0,0-.5.32,7,7,0,0,1-5.79,4.14.51.51,0,0,0-.46.41,6.83,6.83,0,0,1-1.14,2.53.5.5,0,0,0,.29.79L58.23,43.57ZM36.41,35.4h-.32c-4.59,0-6.3-1.78-6.93-3.28a3.69,3.69,0,0,1,1.78-4.67,24.6,24.6,0,0,0,5.89-4.83,1,1,0,0,1,.87-.34,1,1,0,0,1,.79.48,8.45,8.45,0,0,1,1,4.63,4,4,0,0,1,2.34,2.36,3.88,3.88,0,0,1-.19,3.68C40.81,34.71,39.09,35.36,36.41,35.4Z"/><path d="M40,32.27c-.25.37-1.05,1-3.58,1-2,0-4.59-.29-5.31-2a1.62,1.62,0,0,1,.84-2,24.29,24.29,0,0,0,5.34-4.1,7.06,7.06,0,0,1,.22,2,3.09,3.09,0,0,0-.91.33,3,3,0,0,0-1.64,2.05,1,1,0,0,0,.78,1.25A1,1,0,0,0,37,30.08a1,1,0,0,1,.55-.68,1.44,1.44,0,0,1,.78-.15h.06a1.89,1.89,0,0,1,1.59,1.23A2,2,0,0,1,40,32.27Z"/></g></svg>