<svg id="icons" xmlns="http://www.w3.org/2000/svg" viewBox="0 0 64 64"><g id="pizza"><path d="M60,35.06a24.68,24.68,0,1,1-47.88-8.47l2.45.95A22,22,0,1,0,35.27,12.8a21.6,21.6,0,0,0-7.36,1.29l-1-2.5a24.35,24.35,0,0,1,8.36-1.46A24.83,24.83,0,0,1,60,35.06Z"/><path d="M21.33,7.47A29.83,29.83,0,0,0,7.54,21.13a.5.5,0,0,1-.64.26l-2.51-.95a.54.54,0,0,1-.29-.72A33.4,33.4,0,0,1,19.87,4.05a.53.53,0,0,1,.71.28l1,2.48A.52.52,0,0,1,21.33,7.47Z"/><path d="M35.27,14.87A19.69,19.69,0,0,0,28.67,16l7.15,17.9a1,1,0,0,1-1.32,1.35l-18.06-7a20.27,20.27,0,0,0,18.83,27,20.2,20.2,0,0,0,0-40.39ZM24.8,43.3a5.08,5.08,0,0,1-2.12.45,5.26,5.26,0,0,1-3.06-1,1,1,0,0,1-.43-.94,5.24,5.24,0,0,1,3-4.26,5.19,5.19,0,0,1,5.18.53,1,1,0,0,1,.42.94A5.23,5.23,0,0,1,24.8,43.3Zm8.87,5.08a5.21,5.21,0,0,1-4,3.31l-.17,0a1.06,1.06,0,0,1-.8-.38,5.31,5.31,0,0,1-.87-5.16,5.2,5.2,0,0,1,4-3.32,1,1,0,0,1,1,.37A5.3,5.3,0,0,1,33.67,48.38ZM45.76,26.83a5.22,5.22,0,0,1,5.18.53,1,1,0,0,1,.42.94,5.26,5.26,0,0,1-3,4.26,5,5,0,0,1-2.12.45,5.28,5.28,0,0,1-3.06-1,1.06,1.06,0,0,1-.43-.94A5.27,5.27,0,0,1,45.76,26.83Zm-8.88-5.09a5.22,5.22,0,0,1,4-3.3,1,1,0,0,1,1,.36A5.31,5.31,0,0,1,42.74,24a5.24,5.24,0,0,1-4,3.31.55.55,0,0,1-.18,0,1,1,0,0,1-.8-.39A5.32,5.32,0,0,1,36.88,21.74ZM43,50.87a1.08,1.08,0,0,1-.85.44H42a5.24,5.24,0,0,1-3.74-8.25,1,1,0,0,1,1-.44A5.25,5.25,0,0,1,43,50.87ZM48.11,43a4.94,4.94,0,0,1-1.81-.35,5.28,5.28,0,0,1-3.3-4,1,1,0,0,1,.37-1,5.19,5.19,0,0,1,5.13-.85,5.25,5.25,0,0,1,3.29,4,1,1,0,0,1-.36,1A5.3,5.3,0,0,1,48.11,43Z"/><path d="M41.61,49.12a3.13,3.13,0,0,1-1.93-1.72,3.2,3.2,0,0,1,0-2.59,3,3,0,0,1,1.93,1.7A3.17,3.17,0,0,1,41.61,49.12Z"/><path d="M25.63,39.46a3.17,3.17,0,0,1-1.69,2,3,3,0,0,1-2.58,0,3.11,3.11,0,0,1,1.7-1.95A3,3,0,0,1,25.63,39.46Z"/><path d="M49.18,28.72a3.11,3.11,0,0,1-1.69,2,3,3,0,0,1-2.57,0,3.07,3.07,0,0,1,1.7-2A3,3,0,0,1,49.18,28.72Z"/><path d="M31.73,47.66a3.07,3.07,0,0,1-1.8,1.83,3.17,3.17,0,0,1-.17-2.61,3.1,3.1,0,0,1,1.8-1.83A3.17,3.17,0,0,1,31.73,47.66Z"/><path d="M40.8,23.24A3.11,3.11,0,0,1,39,25.07a3.15,3.15,0,0,1-.18-2.6,3.09,3.09,0,0,1,1.81-1.83A3.19,3.19,0,0,1,40.8,23.24Z"/><path d="M49.59,40.52a3.07,3.07,0,0,1-2.55.17,3.12,3.12,0,0,1-1.83-1.85,3.07,3.07,0,0,1,2.55-.17A3.15,3.15,0,0,1,49.59,40.52Z"/><path d="M21.73,10.14a27.19,27.19,0,0,0-11.45,11.3,1,1,0,0,0,.55,1.44l19,7.24a.65.65,0,0,0,.83-.85L23.15,10.68A1,1,0,0,0,21.73,10.14Zm2.34,14.31c-5,1.49-10-3.57-8.52-8.6a1.27,1.27,0,0,1,.91-.91c5-1.49,10,3.57,8.52,8.58A1.31,1.31,0,0,1,24.07,24.45Z"/><path d="M22.63,22.1a4.39,4.39,0,0,1-4.73-4.82,4.39,4.39,0,0,1,4.73,4.82Z"/></g></svg>