<svg id="icons" xmlns="http://www.w3.org/2000/svg" viewBox="0 0 64 64"><g id="salad"><polygon points="42.4 52 21.6 52 21.6 49.25 42.39 49.25 42.4 52"/><path d="M59.43,32.79A30.23,30.23,0,0,1,44.73,47.3c-.31.14-25.16.13-25.47,0A30.19,30.19,0,0,1,4.57,32.79Z"/><path d="M49.37,22.79a8,8,0,0,0-2-6.83,3.12,3.12,0,0,1,4.72,2.66,1,1,0,0,0,.85,1,3.07,3.07,0,0,1,2.5,2.67,1.06,1.06,0,0,0,.72.89,3.07,3.07,0,0,1,2.11,2.47H48.21A7.9,7.9,0,0,0,49.37,22.79Z"/><path d="M35.23,24c-.21.78.69,1.11.88,1.74H31.38a5.19,5.19,0,0,0-3.53-7.48,5.13,5.13,0,0,0-2.16-3.84,4.25,4.25,0,0,0-.22-.92h.12A3.8,3.8,0,0,0,31,14.55a3,3,0,0,1,4.34,4,1,1,0,0,0,.6,1.53,1.61,1.61,0,0,1,0,3.06A1.07,1.07,0,0,0,35.23,24Z"/><path d="M60,28.2v2.49H4V28.2c0-.18.13-.34.39-.39l.05,0H59.56A.43.43,0,0,1,60,28.2Z"/><path d="M29.92,23.26a2.94,2.94,0,0,1-1.27,2.43H20.4c0-.23-.09-.49-.15-.79,1.1-.24,3.61-3.41,1.39-4.21a1,1,0,0,0-1.17.9,1.74,1.74,0,0,1-.82,1.25c-.12-.82-4.09-7.91-6.11-5.91a1.06,1.06,0,0,0,.24,1.47A10.79,10.79,0,0,1,16.34,21a7.44,7.44,0,0,1-2.77-.82,1,1,0,0,0-1.42.36c-.92,2.41,4.6,2.58,5.41,2.67a12.12,12.12,0,0,1,.74,2.49h-12a1.15,1.15,0,0,0,.55-1.56,3,3,0,0,1,1.73-4.37c.86-.27.74-1.13.63-1.83A3,3,0,0,1,11.56,15a1.08,1.08,0,0,0,.78-.73,3.13,3.13,0,0,1,4.95-1.55c1.12.79,2-.94,3.28-.68a3.08,3.08,0,0,1,3.09,3,1.08,1.08,0,0,0,.54.91,3,3,0,0,1,1.59,2.64c0,.46-.12.93.23,1.29.49.57,1.3.26,1.93.58A3,3,0,0,1,29.92,23.26Z"/><path d="M45.2,16.76a6.12,6.12,0,0,0-7.4-.13,5.27,5.27,0,0,1-.21,1.94,3.75,3.75,0,0,1,.24,5.88,3.42,3.42,0,0,1,.41,1.24h7.28A5.92,5.92,0,0,0,45.2,16.76Zm-4.5,1.5,1.21-1.2c1-1,2.44.56,1.46,1.51-.43.33-1.33,1.58-1.94,1.5A1.06,1.06,0,0,1,40.7,18.26Zm3.38,6.4c-.83.93-1.8-.3-2.37-.88a1,1,0,0,1,0-1.49c.83-.91,1.8.31,2.38.89A1,1,0,0,1,44.08,24.66Z"/></g></svg>