<svg id="icons" xmlns="http://www.w3.org/2000/svg" viewBox="0 0 64 64"><g id="sauce"><path d="M51.63,21.52A27.84,27.84,0,0,1,39.49,38.73a1.18,1.18,0,0,1-.58.16H22.51a1.08,1.08,0,0,1-.5-.12c-1.23-.66-5-3.09-7.19-9.43,0-.08-2.72-8-10.82-9.64a15.18,15.18,0,0,1,14.66.44,37,37,0,0,0,14.69,4.44,17.36,17.36,0,0,0,9.56-1.72,30.53,30.53,0,0,1,7.47-2.65A1.09,1.09,0,0,1,51.63,21.52Z"/><path d="M41.77,46H19.85a.54.54,0,0,1-.42-.87l3-3.86a.56.56,0,0,1,.43-.21H38.73a.56.56,0,0,1,.43.21l3,3.86A.54.54,0,0,1,41.77,46Z"/><path d="M46.56,35.67a30.59,30.59,0,0,0,7.31-14.28,1.07,1.07,0,0,1,1.41-.79c2.1.79,4.55,2.14,4.71,4S58.41,30,46.56,35.67Z"/></g></svg>