<svg id="icons" xmlns="http://www.w3.org/2000/svg" viewBox="0 0 64 64"><g id="slice_of_pizza" data-name="slice of pizza"><path d="M39.81,5.55a2.37,2.37,0,0,1-.15.77,3.49,3.49,0,0,1-2.11,2l0,0a51.58,51.58,0,0,0-18,11.94A51.87,51.87,0,0,0,8.35,37h0a3.11,3.11,0,0,1-2.22,2,1.5,1.5,0,0,1-1.7-.78,3.11,3.11,0,0,1-.24-2.61A50,50,0,0,1,16,16.69,48.68,48.68,0,0,1,36.34,4.17,3.57,3.57,0,0,1,37.45,4a3.35,3.35,0,0,1,1.3.26C39.47,4.57,39.81,5,39.81,5.55Z"/><path d="M38.34,29.81a3.31,3.31,0,0,1-4.62,0,3.37,3.37,0,0,1,0-4.73,3.31,3.31,0,0,1,4.62,0A3.39,3.39,0,0,1,38.34,29.81Z"/><path d="M59.92,58.61,39.62,10.74a1,1,0,0,0-1.37-.5c-2.79,1.43-11,5.77-15.64,10S12.06,34.55,10.26,37.73a1,1,0,0,0,.47,1.4L58.6,59.92A1.14,1.14,0,0,0,59,60a1,1,0,0,0,.7-.29A1,1,0,0,0,59.92,58.61ZM51.3,51a1,1,0,0,1-.48,1.33.9.9,0,0,1-.42.1,1,1,0,0,1-.91-.58,7.19,7.19,0,0,1-.28-4,1,1,0,0,1,2,.43A5.21,5.21,0,0,0,51.3,51ZM42.13,36.8a5.2,5.2,0,0,1,3.73,1.57,5.38,5.38,0,0,1,0,7.53,5.25,5.25,0,0,1-7.47,0,5.38,5.38,0,0,1,0-7.53A5.22,5.22,0,0,1,42.13,36.8Zm-1.78-3.57a7,7,0,0,1,4-.59,1,1,0,0,1-.29,2,6.64,6.64,0,0,0-.79,0,3.94,3.94,0,0,0-1.89.39A1,1,0,0,1,40,34.59,1,1,0,0,1,40.35,33.23ZM34.2,15.36a1.74,1.74,0,0,1,2.49,0,1.79,1.79,0,0,1,0,2.52,1.74,1.74,0,0,1-2.49,0A1.81,1.81,0,0,1,34.2,15.36Zm-1.91,8.32a5.23,5.23,0,0,1,7.47,0,5.38,5.38,0,0,1,0,7.53,5.23,5.23,0,0,1-7.47,0,5.4,5.4,0,0,1,0-7.53ZM30.09,38a1.75,1.75,0,0,1,2.5,0,1.82,1.82,0,0,1,0,2.53,1.75,1.75,0,0,1-2.5,0A1.82,1.82,0,0,1,30.09,38ZM23.72,24.66c1.06-2.53,4.11-4.27,4.24-4.34a1,1,0,1,1,1,1.74s-2.59,1.48-3.38,3.37a1,1,0,0,1-.92.62,1.09,1.09,0,0,1-.39-.08A1,1,0,0,1,23.72,24.66Zm-5.39,5.65a5.23,5.23,0,0,1,7.47,0,5.38,5.38,0,0,1,0,7.53,5.23,5.23,0,0,1-7.47,0,5.37,5.37,0,0,1,0-7.53Z"/><path d="M44.44,44.49a3.3,3.3,0,0,1-4.62,0,3.36,3.36,0,0,1,0-4.72,3.18,3.18,0,0,1,2.31-1,3.21,3.21,0,0,1,2.31,1A3.38,3.38,0,0,1,44.44,44.49Z"/><path d="M24.38,36.44a3.33,3.33,0,0,1-4.63,0,3.38,3.38,0,0,1,0-4.72,3.22,3.22,0,0,1,4.63,0A3.38,3.38,0,0,1,24.38,36.44Z"/></g></svg>