<svg width="46" height="46" viewBox="0 0 46 46" fill="none" xmlns="http://www.w3.org/2000/svg">
<rect width="46" height="46" rx="11.5" fill="#FC3A3A"/>
<path d="M15.8125 30.1875H24.4375V33.0625H15.8125V30.1875Z" fill="white"/>
<path d="M33.1602 13.1429L35.2721 20.5357H40.25V18.0714H37.1314L35.5297 12.4664C35.3812 11.9522 35.07 11.5001 34.6428 11.1777C34.2156 10.8554 33.6954 10.6802 33.1602 10.6786H31.4981L30.6011 7.53784C30.4526 7.02366 30.1415 6.57149 29.7143 6.24914C29.2871 5.92679 28.7669 5.75165 28.2317 5.75H12.8397C12.3049 5.75184 11.7851 5.92692 11.3582 6.24901C10.9313 6.57111 10.6202 7.02286 10.4716 7.53661L8.86979 13.1429H5.75V15.6071H10.7279L12.8397 8.21429H28.2317L28.9352 10.6786H17.7683C17.2335 10.6804 16.7137 10.8555 16.2868 11.1776C15.8598 11.4997 15.5488 11.9514 15.4001 12.4652L14.1495 16.8393H12.7905C12.2769 16.8392 11.7761 16.9998 11.3583 17.2985C10.9405 17.5972 10.6265 18.0191 10.4605 18.5051L8.91907 23H5.75V25.4643H8.21429V34.0893C8.21526 34.7426 8.47521 35.3688 8.93714 35.8307C9.39907 36.2927 10.0253 36.5526 10.6786 36.5536V40.25H13.1429V36.5536H27.9286V40.25H30.3929V36.5536C31.0461 36.5526 31.6724 36.2927 32.1343 35.8307C32.5962 35.3688 32.8562 34.7426 32.8571 34.0893V25.4643H35.3214V23H32.1536L30.6122 18.5064C30.4461 18.02 30.132 17.5978 29.714 17.2989C29.296 16.9999 28.7949 16.8392 28.281 16.8393H16.7124L17.7683 13.1429H33.1602ZM30.3929 26.6964V29.1607H27.9286V31.625H30.3929V34.0893H10.6786V31.625H13.1429V29.1607H10.6786V26.6964H30.3929ZM29.9702 24.2321H11.1012L12.7905 19.3036H28.281L29.9702 24.2321Z" fill="white"/>
</svg>
