<svg width="51" height="51" viewBox="0 0 51 51" fill="none" xmlns="http://www.w3.org/2000/svg">
<rect width="50.8523" height="50.8523" rx="8" fill="#2D2D2D"/>
<path d="M28.0403 11.7035L27.964 13.4325L24.6586 13.5597C21.7346 13.6868 21.1753 13.7885 19.904 14.3987C18.0224 15.3141 16.1663 16.9922 15.3018 18.5686C13.9542 21.0604 13.8525 22.0266 13.8525 31.7902V40.7656H16.6494H19.4463V31.7393C19.4463 21.7214 19.4463 21.6452 21.0481 20.2467C22.2177 19.2043 23.3619 18.8991 25.9808 18.8991H28.0658L28.142 20.7044L28.2183 22.5097L32.2865 19.4839C34.524 17.8312 36.3801 16.3565 36.3801 16.2294C36.4055 16.0006 28.5234 10 28.2183 10C28.1675 10 28.0912 10.7628 28.0403 11.7035Z" fill="white"/>
</svg>
