<svg width="51" height="51" viewBox="0 0 51 51" fill="none" xmlns="http://www.w3.org/2000/svg">
<rect width="50.8523" height="50.8523" rx="8" fill="#2D2D2D"/>
<path d="M22.7817 11.425L22.8582 13.125L26.1707 13.25C29.101 13.375 29.6615 13.475 30.9356 14.075C32.8212 14.975 34.6813 16.625 35.5476 18.175C36.8981 20.625 37 21.575 37 31.175V40H34.1971H31.3942V31.125C31.3942 21.275 31.3942 21.2 29.7889 19.825C28.6168 18.8 27.4702 18.5 24.8457 18.5H22.7563L22.6798 20.275L22.6034 22.05L18.5264 19.075C16.2841 17.45 14.424 16 14.424 15.875C14.3986 15.65 22.2976 9.75 22.6034 9.75C22.6543 9.75 22.7308 10.5 22.7817 11.425Z" fill="white"/>
</svg>
