<svg id="icons" xmlns="http://www.w3.org/2000/svg" viewBox="0 0 64 64"><defs><style>.cls-1{fill:none;stroke:#000;stroke-linecap:round;stroke-linejoin:round;stroke-width:2px;}</style></defs><g id="BBQ"><ellipse class="cls-1" cx="23.38" cy="52.87" rx="4.28" ry="2.82" transform="translate(-30.53 32.02) rotate(-45)"/><circle class="cls-1" cx="33.44" cy="42.8" r="4.28"/><path class="cls-1" d="M40.59,34.08V30.83a1.45,1.45,0,0,1,1.46-1.45h3.22a1.45,1.45,0,0,1,1.46,1.45v3.51a1.46,1.46,0,0,1-1.57,1.45l-3.23-.25A1.46,1.46,0,0,1,40.59,34.08Z"/><rect class="cls-1" x="24.13" y="45" width="8.56" height="5.67" rx="0.98" transform="translate(14.68 101.75) rotate(-135)"/><rect class="cls-1" x="34.49" y="34.22" width="8.56" height="6.51" rx="0.98" transform="translate(39.69 91.39) rotate(-135)"/><rect class="cls-1" x="44.05" y="25.16" width="8.56" height="5.53" rx="0.98" transform="translate(62.76 81.83) rotate(-135)"/><path class="cls-1" d="M54.55,17.18a3.19,3.19,0,1,1,0,4.51L50.28,26"/><line class="cls-1" x1="20.35" y1="55.89" x2="16.25" y2="60"/><ellipse class="cls-1" cx="11.13" cy="40.62" rx="4.28" ry="2.82" transform="translate(-25.46 19.77) rotate(-45)"/><circle class="cls-1" cx="21.2" cy="30.56" r="4.28"/><path class="cls-1" d="M28.34,21.84V18.59a1.46,1.46,0,0,1,1.46-1.46H33a1.45,1.45,0,0,1,1.45,1.46v3.5a1.46,1.46,0,0,1-1.57,1.46l-3.22-.26A1.46,1.46,0,0,1,28.34,21.84Z"/><rect class="cls-1" x="11.89" y="32.75" width="8.56" height="5.67" rx="0.98" transform="translate(2.43 72.18) rotate(-135)"/><rect class="cls-1" x="22.25" y="21.97" width="8.56" height="6.51" rx="0.98" transform="translate(27.45 61.82) rotate(-135)"/><rect class="cls-1" x="31.8" y="12.91" width="8.56" height="5.53" rx="0.98" transform="translate(50.51 52.27) rotate(-135)"/><path class="cls-1" d="M42.31,4.93a3.19,3.19,0,1,1,0,4.52L38,13.72"/><line class="cls-1" x1="8.11" y1="43.65" x2="4" y2="47.75"/></g></svg>