<svg id="icons" xmlns="http://www.w3.org/2000/svg" viewBox="0 0 64 64"><defs><style>.cls-1{fill:none;stroke:#000;stroke-linecap:round;stroke-linejoin:round;stroke-width:2px;}</style></defs><g id="beer"><path class="cls-1" d="M44.07,4a2.34,2.34,0,0,1,2.24,1.67c1.08,3.65,3.09,12.71-.56,21.09l-1,2.29A60.27,60.27,0,0,0,40,52.55h0s4.14,5.06,0,7.45H23.84c-4.15-2.39,0-7.45,0-7.45h0a60.28,60.28,0,0,0-4.78-23.5l-1-2.29c-3.65-8.38-1.64-17.44-.55-21.09A2.33,2.33,0,0,1,19.77,4Z"/><line class="cls-1" x1="23.84" y1="52.55" x2="40.01" y2="52.55"/></g></svg>