<svg id="icons" xmlns="http://www.w3.org/2000/svg" viewBox="0 0 64 64"><defs><style>.cls-1{fill:none;stroke:#000;stroke-linecap:round;stroke-linejoin:round;stroke-width:2px;}</style></defs><g id="bottle_of_water" data-name="bottle of water"><path class="cls-1" d="M35.78,15.9l5.14,4.82A3.37,3.37,0,0,1,42,23.17v5.35a3.24,3.24,0,0,1-.39,1.55L39.83,33.4A3.36,3.36,0,0,0,39.44,35v6.93a3.3,3.3,0,0,0,.48,1.69l1.61,2.69A3.33,3.33,0,0,1,42,48v8.26a4.34,4.34,0,0,1-1.58,3.31h0a2.07,2.07,0,0,1-2.84-.2l-.79-.9a2.06,2.06,0,0,0-3.16.14h0a2,2,0,0,1-3.26,0h0a2.06,2.06,0,0,0-3.16-.14l-.79.9a2.07,2.07,0,0,1-2.84.2h0A4.34,4.34,0,0,1,22,56.22V48a3.33,3.33,0,0,1,.47-1.7l1.61-2.69a3.3,3.3,0,0,0,.48-1.69V35a3.36,3.36,0,0,0-.39-1.55l-1.78-3.33A3.24,3.24,0,0,1,22,28.52V23.17a3.37,3.37,0,0,1,1.08-2.45l5.14-4.82Z"/><path class="cls-1" d="M26.73,9.66V6.31A2.38,2.38,0,0,1,29.19,4H34.9a2.39,2.39,0,0,1,2.47,2.31V9.66a1.2,1.2,0,0,1-1.23,1.16H28A1.2,1.2,0,0,1,26.73,9.66Z"/><line class="cls-1" x1="29.19" y1="15.9" x2="29.19" y2="10.82"/><line class="cls-1" x1="34.9" y1="10.82" x2="34.9" y2="15.9"/><line class="cls-1" x1="22" y1="23.17" x2="42" y2="23.17"/><line class="cls-1" x1="22" y1="50.44" x2="42" y2="50.44"/></g></svg>