<svg id="icons" xmlns="http://www.w3.org/2000/svg" viewBox="0 0 64 64"><defs><style>.cls-1{fill:none;stroke:#000;stroke-linecap:round;stroke-linejoin:round;stroke-width:2px;}</style></defs><g id="burger"><path class="cls-1" d="M54.16,39.41a4.62,4.62,0,0,1,2.19,4h0A4.45,4.45,0,0,1,52,48H10.88a4.45,4.45,0,0,1-4.32-4.59h0a4.62,4.62,0,0,1,2.19-4"/><path class="cls-1" d="M52.05,39.41a3,3,0,0,1-3,3.14,2.91,2.91,0,0,1-2.45-1.37,3.6,3.6,0,0,0-3-1.77H42.9a3.63,3.63,0,0,0-3,1.78,2.87,2.87,0,0,1-4.89,0,3.6,3.6,0,0,0-3-1.77h-.75a3.61,3.61,0,0,0-3,1.78,2.88,2.88,0,0,1-4.9,0,3.6,3.6,0,0,0-3-1.77h-.75a3.61,3.61,0,0,0-3,1.78,2.87,2.87,0,0,1-4.88,0,3.63,3.63,0,0,0-3-1.78H8.7a2.16,2.16,0,0,1-.11-4.32H54.21a2.16,2.16,0,0,1,2.12,1.8,2.13,2.13,0,0,1-2,2.52H52.05"/><rect class="cls-1" x="4" y="29.21" width="56" height="5.89" rx="2.86"/><path class="cls-1" d="M9.05,29.21H53.86a2.57,2.57,0,0,0,2.49-2.65h0c0-5.44-3.63-9-8.45-10.18A14.87,14.87,0,0,0,44.32,16H18.59a14.87,14.87,0,0,0-3.58.38c-4.82,1.22-8.45,4.74-8.45,10.18h0A2.58,2.58,0,0,0,9.05,29.21Z"/><path class="cls-1" d="M19,16v4.22a2.31,2.31,0,0,0,2.24,2.38h0a2.31,2.31,0,0,0,2.24-2.38V16"/><path class="cls-1" d="M39.4,16v4.22a2.31,2.31,0,0,0,2.24,2.38h0a2.31,2.31,0,0,0,2.24-2.38V16"/><path class="cls-1" d="M29.22,16v4.22a2.31,2.31,0,0,0,2.24,2.38h0a2.31,2.31,0,0,0,2.24-2.38V16"/></g></svg>