<svg id="icons" xmlns="http://www.w3.org/2000/svg" viewBox="0 0 64 64"><defs><style>.cls-1{fill:none;stroke:#000;stroke-linecap:round;stroke-linejoin:round;stroke-width:2px;}</style></defs><g id="check"><line class="cls-1" x1="4" y1="6" x2="60" y2="6"/><path class="cls-1" d="M10.72,6h0a19.07,19.07,0,0,1,4.44,12.28V55.35a1.21,1.21,0,0,0,2.08.9l3.87-4a1.2,1.2,0,0,1,1.73,0L28,57.63a1.19,1.19,0,0,0,1.72,0l5.19-5.43a1.19,1.19,0,0,1,1.72,0l5.15,5.38a1.19,1.19,0,0,0,1.72,0L48.9,52a1.19,1.19,0,0,1,1.69,0l4.63,4.5a1.21,1.21,0,0,0,2-.93V18.28A19.07,19.07,0,0,0,52.82,6h0"/><line class="cls-1" x1="49.93" y1="16.22" x2="32.64" y2="16.22"/><line class="cls-1" x1="49.93" y1="23.65" x2="32.64" y2="23.65"/><line class="cls-1" x1="26.02" y1="16.22" x2="20.99" y2="16.22"/><line class="cls-1" x1="26.02" y1="23.65" x2="20.99" y2="23.65"/><line class="cls-1" x1="20.99" y1="36.72" x2="49.93" y2="36.72"/><line class="cls-1" x1="20.99" y1="44.15" x2="49.93" y2="44.15"/></g></svg>