<svg id="icons" xmlns="http://www.w3.org/2000/svg" viewBox="0 0 64 64"><defs><style>.cls-1{fill:none;stroke:#000;stroke-linecap:round;stroke-linejoin:round;stroke-width:2px;}</style></defs><g id="chef"><path class="cls-1" d="M14.65,43.46H49.29a1.19,1.19,0,0,1,1.17,1.21V54.79A1.19,1.19,0,0,1,49.29,56H14.65a1.19,1.19,0,0,1-1.17-1.21V44.67A1.19,1.19,0,0,1,14.65,43.46Z"/><path class="cls-1" d="M14.65,43.45s-9.09-9.19-10.53-19C2.78,15.24,12.9,9.26,19.4,15.05a14.73,14.73,0,0,1,25.16,0c6.51-5.85,16.67.15,15.32,9.4-1.44,9.78-10.59,19-10.59,19"/><line class="cls-1" x1="19.4" y1="15.05" x2="19.4" y2="23.92"/><line class="cls-1" x1="44.56" y1="15.08" x2="44.56" y2="23.92"/><line class="cls-1" x1="24.75" y1="43.45" x2="20.01" y2="35.62"/><line class="cls-1" x1="39.16" y1="43.45" x2="43.9" y2="35.62"/></g></svg>