<svg id="icons" xmlns="http://www.w3.org/2000/svg" viewBox="0 0 64 64"><defs><style>.cls-1{fill:none;stroke:#000;stroke-linecap:round;stroke-linejoin:round;stroke-width:2px;}</style></defs><g id="chips"><path class="cls-1" d="M46,24.13a7.87,7.87,0,0,1,11.18-2.5A6.81,6.81,0,0,1,60,27.52c0,6.06-3.47,12.19-5.69,15.49a5.67,5.67,0,0,1-4.72,2.48h0a5.74,5.74,0,0,1-4.29-1.92C43,41,38.43,36.78,32.49,35.87a4.84,4.84,0,0,0-5.08,2.31,4.48,4.48,0,0,0-.48,2.56,1.69,1.69,0,0,0,2.71,1.06C33.23,39.09,40.94,32.65,46,24.13Z"/><path class="cls-1" d="M18.05,7.87A7.86,7.86,0,0,0,6.87,5.38,6.77,6.77,0,0,0,4,11.26c0,6.06,3.47,12.2,5.69,15.5a5.68,5.68,0,0,0,4.72,2.47h0a5.76,5.76,0,0,0,4.29-1.91c2.27-2.54,6.87-6.8,12.81-7.71a4.83,4.83,0,0,1,5.08,2.32,4.43,4.43,0,0,1,.48,2.55,1.69,1.69,0,0,1-2.71,1.07C30.77,22.83,23.06,16.39,18.05,7.87Z"/><path class="cls-1" d="M19.87,38.94A7.82,7.82,0,0,0,9.41,34.33a6.88,6.88,0,0,0-4,5.21c-1.23,6,.94,12.63,2.44,16.3A5.64,5.64,0,0,0,12,59.18h0a5.86,5.86,0,0,0,4.59-1c2.74-2.05,8.11-5.34,14.12-5.08A4.79,4.79,0,0,1,35.2,56.3a4.45,4.45,0,0,1-.05,2.6,1.69,1.69,0,0,1-2.87.52C29.31,56.07,23.05,48.26,19.87,38.94Z"/></g></svg>