<svg id="icons" xmlns="http://www.w3.org/2000/svg" viewBox="0 0 64 64"><defs><style>.cls-1{fill:none;stroke:#000;stroke-linecap:round;stroke-linejoin:round;stroke-width:2px;}</style></defs><g id="coffee"><path class="cls-1" d="M18.57,53.23C10.9,48.43,6,38.83,6,29.09V25.53a2.18,2.18,0,0,1,2.16-2.2H50.63a2.18,2.18,0,0,1,2.16,2.2v3.56c0,9.74-4.91,19.34-12.59,24.14Z"/><path class="cls-1" d="M52.79,26.75a10,10,0,0,1,6.94,11.74,9.81,9.81,0,0,1-11.8,7"/><line class="cls-1" x1="52.79" y1="29.09" x2="5.98" y2="29.09"/><path class="cls-1" d="M30.46,4,29.6,5a4.71,4.71,0,0,0-1.05,4.36,3.51,3.51,0,0,0,.21.57h0a5.71,5.71,0,0,1,.21.58,4.71,4.71,0,0,1-1.06,4.36l-.86,1"/><path class="cls-1" d="M25.07,5.39l-.67.77a3.57,3.57,0,0,0-.92,2.77,3.81,3.81,0,0,0,.28,1h0a3.62,3.62,0,0,1,.28,1,3.57,3.57,0,0,1-.91,2.76l-.67.78"/><path class="cls-1" d="M35.08,5.39l-.67.77a3.57,3.57,0,0,0-.92,2.77,3.81,3.81,0,0,0,.28,1h0a3.62,3.62,0,0,1,.28,1,3.57,3.57,0,0,1-.91,2.76l-.67.78"/><path class="cls-1" d="M60,53.23l-4.56,2.92A24.69,24.69,0,0,1,42.13,60H21.87A24.69,24.69,0,0,1,8.56,56.15L4,53.23Z"/></g></svg>