<svg id="icons" xmlns="http://www.w3.org/2000/svg" viewBox="0 0 64 64"><defs><style>.cls-1{fill:none;stroke:#000;stroke-linecap:round;stroke-linejoin:round;stroke-width:2px;}</style></defs><g id="cookie"><path class="cls-1" d="M31.29,28.11V52.69S6,52,6,24.25c0,0,.73-5.67,3.29-9.32,1.32-1.87,4.93-3.91,7.64-6.2A20.09,20.09,0,0,1,29.93,4h2.43A20.24,20.24,0,0,1,42.67,6.81c4.81,2.86,11.13,7.74,11.81,14,.1.95.28,1.89.47,2.83.63,3.21,1.38,10.23-2.76,15Z"/><path class="cls-1" d="M36.78,37V60h0A26.48,26.48,0,0,0,58,46.68L36.78,37Z"/><path class="cls-1" d="M12.43,23.31a6.94,6.94,0,0,1,5.15-3.48"/><path class="cls-1" d="M22.35,14.05a7.05,7.05,0,0,1,6-1.62"/><path class="cls-1" d="M37.92,13.41a6.93,6.93,0,0,1,4.47,4.29"/><path class="cls-1" d="M24.32,25.77a7,7,0,0,1,5.33-3.22"/><path class="cls-1" d="M14.68,35.74a6.83,6.83,0,0,1,4.06-4.67"/><path class="cls-1" d="M19.94,39.92s3.59.71,4.82,3.91"/><path class="cls-1" d="M37.57,23.81s3.59.71,4.82,3.91"/><path class="cls-1" d="M48.37,29.63a6.77,6.77,0,0,1,3-5.4"/><path class="cls-1" d="M47.27,47.15a6.88,6.88,0,0,1-4.57,4.19"/></g></svg>