<svg id="icons" xmlns="http://www.w3.org/2000/svg" viewBox="0 0 64 64"><defs><style>.cls-1{fill:none;stroke:#000;stroke-linecap:round;stroke-linejoin:round;stroke-width:2px;}</style></defs><g id="dish"><ellipse class="cls-1" cx="34.19" cy="32" rx="10.41" ry="10.45"/><ellipse class="cls-1" cx="34.19" cy="32" rx="15.93" ry="16"/><path class="cls-1" d="M4,16v8.19a4.94,4.94,0,0,0,1.44,3.49h0a5,5,0,0,1,1.42,3.91l-1,12.09A3.23,3.23,0,0,0,9,47.19H9a3.23,3.23,0,0,0,3.21-3.51l-1-12.09a5,5,0,0,1,1.43-3.91h0a4.93,4.93,0,0,0,1.43-3.49V16"/><line class="cls-1" x1="7.37" y1="16" x2="7.37" y2="23.33"/><line class="cls-1" x1="10.69" y1="16" x2="10.69" y2="23.33"/><path class="cls-1" d="M60,16V44.88A3.12,3.12,0,0,1,56.89,48h0a3.12,3.12,0,0,1-3.11-3.12l1.57-5.35c.5-1.2.22-6.85-.7-7.77h0a3.26,3.26,0,0,1-.94-2.28h0A15.71,15.71,0,0,1,57,19.8Z"/></g></svg>