<svg id="icons" xmlns="http://www.w3.org/2000/svg" viewBox="0 0 64 64"><defs><style>.cls-1{fill:none;stroke:#000;stroke-linecap:round;stroke-linejoin:round;stroke-width:2px;}</style></defs><g id="fast_food" data-name="fast food"><path class="cls-1" d="M56.86,48.33a1.26,1.26,0,0,0,1.22-1.57c-1.7-6.57-8.16-9.92-15.87-9.92s-14.14,3.34-15.86,9.87a1.3,1.3,0,0,0,1.22,1.62Z"/><rect class="cls-1" x="24.77" y="48.33" width="35.23" height="4.67" rx="2.33" transform="translate(84.77 101.33) rotate(180)"/><path class="cls-1" d="M27.13,53H57.64v2.58A4.44,4.44,0,0,1,53.18,60H31.59a4.44,4.44,0,0,1-4.46-4.42Z"/><path class="cls-1" d="M46.67,41.78a1,1,0,0,0-2.08,0"/><path class="cls-1" d="M40,41.78a1,1,0,0,0-2.08,0"/><path class="cls-1" d="M49.14,45.52a1,1,0,0,0-2.08,0"/><path class="cls-1" d="M43.43,45.52a1,1,0,0,0-2.08,0"/><path class="cls-1" d="M37.72,45.52a1,1,0,0,0-2.08,0"/><path class="cls-1" d="M28.75,59a2.75,2.75,0,0,1-2.13,1H12.1a2.76,2.76,0,0,1-2.76-2.54L6.76,21.92H32L30.62,40.29"/><path class="cls-1" d="M32.5,17.52H6.22A2.21,2.21,0,0,0,4,19.72H4a2.21,2.21,0,0,0,2.22,2.2H32.5a2.21,2.21,0,0,0,2.22-2.2h0A2.21,2.21,0,0,0,32.5,17.52Z"/><path class="cls-1" d="M11.68,14.47H27.12a3.08,3.08,0,0,1,3.09,3H8.6A3.08,3.08,0,0,1,11.68,14.47Z"/><path class="cls-1" d="M16.56,14.47,14.58,5a1.61,1.61,0,0,0-1.67-1h0c-1,0-1.8.61-1.67,1.3L13,14.47Z"/></g></svg>