<svg id="icons" xmlns="http://www.w3.org/2000/svg" viewBox="0 0 64 64"><defs><style>.cls-1{fill:none;stroke:#000;stroke-linecap:round;stroke-linejoin:round;stroke-width:2px;}</style></defs><g id="food_bag" data-name="food bag"><path class="cls-1" d="M8,18.6V56.49A3.5,3.5,0,0,0,11.49,60h41A3.5,3.5,0,0,0,56,56.49V18.6a1.16,1.16,0,0,0-1.16-1.17H9.16A1.16,1.16,0,0,0,8,18.6Z"/><path class="cls-1" d="M42.47,17.43V11.81c0-2.73-1.26-2.93-3.34-4.35L35.78,5.15a6.33,6.33,0,0,0-7.18-.07L25,7.48c-2.13,1.41-3.44,1.64-3.44,4.43v5.52"/><polyline class="cls-1" points="25.97 17.43 25.97 9.54 38.03 9.54 38.03 17.43"/><line class="cls-1" x1="28.6" y1="5.08" x2="25.97" y2="9.54"/><line class="cls-1" x1="38.03" y1="9.54" x2="35.78" y2="5.15"/></g></svg>