<svg id="icons" xmlns="http://www.w3.org/2000/svg" viewBox="0 0 64 64"><defs><style>.cls-1{fill:none;stroke:#000;stroke-linecap:round;stroke-linejoin:round;stroke-width:2px;}</style></defs><g id="ice_cream_cone" data-name="ice cream cone"><path class="cls-1" d="M20,40.46,21.7,58a2.21,2.21,0,0,0,2.2,2H40.1a2.21,2.21,0,0,0,2.2-2L44,40.46"/><rect class="cls-1" x="17.87" y="31.78" width="28.27" height="8.68" rx="1.11"/><path class="cls-1" d="M35.61,23.6S27.92,27.78,22,27.94c-3.26.08-2,3.84-2,3.84"/><path class="cls-1" d="M20.41,28.46s-4-8.27,16.38-10.19a5.3,5.3,0,0,1,5.37,2.95c.86,1.91.54,4.5-4.21,7.24"/><path class="cls-1" d="M45,31.78s2.31-5.93-2.92-7.15"/><path class="cls-1" d="M22.64,22.35a5.94,5.94,0,0,1,3.59-6.7s5.26-1.24,7.11-2.83"/><path class="cls-1" d="M37.29,18.24s2.93-4.85-.11-7S32,4,32,4h0s-1,4.38-4.06,6.22-1.71,5.43-1.71,5.43"/><polyline class="cls-1" points="43.15 40.46 37.6 45.13 31.52 50.26 25.52 55.33 21.8 58.46"/><polyline class="cls-1" points="31.97 60 37.53 55.33 43.02 50.69"/><polyline class="cls-1" points="20.81 49.02 25.45 45.13 30.99 40.46"/><polyline class="cls-1" points="19.97 40.46 25.45 45.13 31.52 50.26 37.53 55.33 41.92 59.03"/><polyline class="cls-1" points="31.08 60 25.52 55.33 21.07 51.57"/><polyline class="cls-1" points="43.11 49.77 37.6 45.13 32.05 40.46"/></g></svg>