<svg id="icons" xmlns="http://www.w3.org/2000/svg" viewBox="0 0 64 64"><defs><style>.cls-1{fill:none;stroke:#000;stroke-linecap:round;stroke-linejoin:round;stroke-width:2px;}</style></defs><g id="ice_cream" data-name="ice cream"><path class="cls-1" d="M9.65,38.15l3.84,19.61A2.81,2.81,0,0,0,16.26,60H47.74a2.81,2.81,0,0,0,2.77-2.24l3.87-19.61"/><path class="cls-1" d="M58,35.6a2.27,2.27,0,0,1-.93,1.8,3.51,3.51,0,0,1-2.22.75H9.15A2.9,2.9,0,0,1,6,35.6a2.32,2.32,0,0,1,.92-1.8,3.56,3.56,0,0,1,2.23-.75h45.7A2.9,2.9,0,0,1,58,35.6Z"/><path class="cls-1" d="M42.74,33.05a10.87,10.87,0,0,0-3.4-5.57,11.2,11.2,0,0,0-4.5-2.4A11.49,11.49,0,0,0,32,24.72,10,10,0,0,0,29.8,25a11,11,0,0,0-8.54,8.1"/><path class="cls-1" d="M29.8,25a11.06,11.06,0,0,0-8.73-7.2,12.32,12.32,0,0,0-1.72-.12,11,11,0,0,0-11,10.88,10.63,10.63,0,0,0,1,4.54"/><path class="cls-1" d="M24.66,27.48A10.83,10.83,0,0,1,29.8,25,10,10,0,0,1,32,24.72a11.49,11.49,0,0,1,2.83.36,11.2,11.2,0,0,1,4.5,2.4"/><path class="cls-1" d="M21.07,17.75a11.08,11.08,0,0,1,21.27-2.19"/><path class="cls-1" d="M54.14,33.05a10.68,10.68,0,0,0,2.76-7.18,11.05,11.05,0,0,0-22.06-.79"/><path class="cls-1" d="M45.85,15l5.46-9.6a2.8,2.8,0,0,1,3.9-1h0a2.71,2.71,0,0,1,.94,3.63L51.4,16.46"/></g></svg>