<svg id="icons" xmlns="http://www.w3.org/2000/svg" viewBox="0 0 64 64"><defs><style>.cls-1{fill:none;stroke:#000;stroke-linecap:round;stroke-linejoin:round;stroke-width:2px;}</style></defs><g id="juice"><path class="cls-1" d="M18,31.6,21.41,59a1.2,1.2,0,0,0,1.21,1H41.38a1.2,1.2,0,0,0,1.21-1L46,31.6"/><polygon class="cls-1" points="50 31.6 14 31.6 18.03 26.02 45.97 26.02 50 31.6"/><path class="cls-1" d="M46,26V25.2A10.13,10.13,0,0,0,42.89,18h0a10.68,10.68,0,0,0-7.44-3h-6.9a10.68,10.68,0,0,0-7.44,3h0A10.13,10.13,0,0,0,18,25.2V26"/><line class="cls-1" x1="30.71" y1="31.6" x2="28.9" y2="54.18"/><path class="cls-1" d="M31.15,26,32,14.94l.61-7.64a3.66,3.66,0,0,1,4.76-3.13l7.16,2.21"/></g></svg>