<svg id="icons" xmlns="http://www.w3.org/2000/svg" viewBox="0 0 64 64"><defs><style>.cls-1{fill:none;stroke:#000;stroke-linecap:round;stroke-linejoin:round;stroke-width:2px;}</style></defs><g id="milk_shake" data-name="milk shake"><path class="cls-1" d="M17.23,41.36V58.83A1.21,1.21,0,0,0,18.47,60h24.2a1.2,1.2,0,0,0,1.24-1.17V41.36l-2.54,1.19a3.74,3.74,0,0,1-3.66-.29L37,41.74a3.7,3.7,0,0,0-4.31.1h0a3.74,3.74,0,0,1-4.25.15l-.47-.31a3.7,3.7,0,0,0-4.3.2l-.19.15a3.75,3.75,0,0,1-3.89.43Z"/><polyline class="cls-1" points="17.15 41.36 14 38.38 14 22.19 47.14 22.19 47.14 38.22 43.83 41.36"/><line class="cls-1" x1="39.38" y1="60" x2="39.38" y2="42.88"/><line class="cls-1" x1="21.86" y1="60" x2="21.86" y2="42.75"/><line class="cls-1" x1="30.57" y1="59.95" x2="30.57" y2="42.58"/><path class="cls-1" d="M44.82,22.19s1.53-9.07-12.44-9.07"/><path class="cls-1" d="M37.61,17.66S31.28,13.72,28.7,7.41a1.26,1.26,0,0,0-1.91-.5c-2.19,1.65-6,5.4-4.1,10.75"/><path class="cls-1" d="M15.73,22.19s-1.91-8.86,6.6-8.86"/><path class="cls-1" d="M36.1,13.37l1.82-6.73A3.78,3.78,0,0,1,43.24,4.4L50,7.73"/></g></svg>