<svg id="icons" xmlns="http://www.w3.org/2000/svg" viewBox="0 0 64 64"><defs><style>.cls-1{fill:none;stroke:#000;stroke-linecap:round;stroke-linejoin:round;stroke-width:2px;}</style></defs><g id="muffin"><line class="cls-1" x1="48.28" y1="38.78" x2="45.95" y2="56"/><line class="cls-1" x1="39.6" y1="56" x2="41.83" y2="39.61"/><line class="cls-1" x1="14.73" y1="39.51" x2="16.96" y2="56"/><path class="cls-1" d="M54.53,38.77,52.48,53.92A2.42,2.42,0,0,1,50.08,56H13a2.42,2.42,0,0,1-2.4-2.08l-2-14.82"/><line class="cls-1" x1="20.9" y1="38.2" x2="23.31" y2="56"/><line class="cls-1" x1="34.73" y1="56" x2="34.73" y2="40.39"/><line class="cls-1" x1="29.02" y1="56" x2="29.02" y2="39.43"/><path class="cls-1" d="M50.23,21.08s6.72,2.69,9.05,7.83c1.88,4.18.42,9.86-8.46,9.86h-7"/><path class="cls-1" d="M8.14,26.68c-5.44,1.43-4.3,7-3.31,9.89a3.35,3.35,0,0,0,2.36,2.2h0c.46.13.91.23,1.35.33a23.32,23.32,0,0,0,6.18.41,20.81,20.81,0,0,0,4.41-.74,15.55,15.55,0,0,0,3.68-1.44c1.37.57,2.68,1.05,3.91,1.44.79.25,1.55.47,2.29.66a30.76,30.76,0,0,0,5.71,1,18.7,18.7,0,0,0,7.1-.78,13.06,13.06,0,0,0,2-.84,10.28,10.28,0,0,0,4.43-4"/><path class="cls-1" d="M9.26,30.52s-5.79-13,6.54-12.59c0,0,6.72-13.76,22.92-8.89C53.93,13.61,49,26.46,49,26.46"/><ellipse cx="37.89" cy="17.83" rx="2.47" ry="2.45"/><ellipse cx="52.81" cy="31.11" rx="2.47" ry="2.45"/><ellipse cx="32.95" cy="29.53" rx="2.47" ry="2.45"/><ellipse cx="17.78" cy="26.2" rx="2.47" ry="2.45"/></g></svg>