<svg id="icons" xmlns="http://www.w3.org/2000/svg" viewBox="0 0 64 64"><defs><style>.cls-1{fill:none;stroke:#000;stroke-linecap:round;stroke-linejoin:round;stroke-width:2px;}</style></defs><g id="noodles"><path class="cls-1" d="M43,45.44V48.6A1.42,1.42,0,0,1,41.58,50H22.43A1.42,1.42,0,0,1,21,48.6V45.44Z"/><path class="cls-1" d="M21,46.18h0A29.83,29.83,0,0,1,4,29.91H4V26.59a1.41,1.41,0,0,1,1.43-1.38H58.77A1.39,1.39,0,0,1,60,26.59v3.32A29.88,29.88,0,0,1,43,46.18"/><line class="cls-1" x1="60" y1="29.92" x2="4" y2="29.92"/><path class="cls-1" d="M26.2,25.21l.12-.19v0a6.53,6.53,0,0,1,2.61-2.1,6.93,6.93,0,0,1,2.72-.57l.61,0a5.07,5.07,0,0,1,.65.09,6.46,6.46,0,0,1,2.9,1.34,6.2,6.2,0,0,1,1.29,1.42"/><path class="cls-1" d="M22.07,25.21a9.29,9.29,0,0,1,1.64-3.3,9.12,9.12,0,0,1,2.61-2.34,9.15,9.15,0,0,1,3.34-1.33h0a10.72,10.72,0,0,1,2-.2,10,10,0,0,1,4,.8,9.5,9.5,0,0,1,2.81,1.82,8.69,8.69,0,0,1,2.06,2.64,7.91,7.91,0,0,1,.75,1.91"/><path class="cls-1" d="M44.59,25.21a11.87,11.87,0,0,0-2.29-5.84,7.87,7.87,0,0,0-.68-.87,13.31,13.31,0,0,0-15.3-3.39A12.6,12.6,0,0,0,23,17.22a11,11,0,0,0-.85.82,12.46,12.46,0,0,0-1.74,2.29,12,12,0,0,0-1.66,4.88"/><path class="cls-1" d="M42.3,19.37a9.86,9.86,0,0,1,9.09,5.84"/><path class="cls-1" d="M38.87,16.12a13.19,13.19,0,0,1,17.2,9.09"/><path class="cls-1" d="M12.49,25.21A9.8,9.8,0,0,1,22,18h.06"/><path class="cls-1" d="M8.05,25.21A12.88,12.88,0,0,1,21,14a13.31,13.31,0,0,1,5.33,1.11"/></g></svg>