<svg id="icons" xmlns="http://www.w3.org/2000/svg" viewBox="0 0 64 64"><defs><style>.cls-1{fill:none;stroke:#000;stroke-linecap:round;stroke-linejoin:round;stroke-width:2px;}</style></defs><g id="pie"><path class="cls-1" d="M6.69,32.3v8.6A2.19,2.19,0,0,0,8.35,43L58.59,56a1.11,1.11,0,0,0,1.41-1V44.82L37.27,17.09"/><path class="cls-1" d="M10.87,33v5.05a2.17,2.17,0,0,0,1.67,2.09L60,52.25"/><line class="cls-1" x1="60" y1="44.82" x2="12.47" y2="32.44"/><path class="cls-1" d="M37.74,14.48A6.6,6.6,0,0,1,31,21a6.79,6.79,0,0,1-2.92-.65,5.7,5.7,0,0,1-5.09,3,5.77,5.77,0,0,1-1.33-.15,5.66,5.66,0,0,1-5.61,4.45,3.94,3.94,0,0,1-.69-.05v.05A5.57,5.57,0,0,1,10.87,33a5.66,5.66,0,0,1-1.17.12,5.79,5.79,0,0,1-3-.83A5.47,5.47,0,0,1,4,27.63a5.6,5.6,0,0,1,5.7-5.5,5.07,5.07,0,0,1,.68,0v0a5.6,5.6,0,0,1,5.7-5.5,6.55,6.55,0,0,1,1.34.15,5.79,5.79,0,0,1,7.21-4.22A6.67,6.67,0,0,1,31,8,6.6,6.6,0,0,1,37.74,14.48Z"/><path class="cls-1" d="M38.16,28.37a7.15,7.15,0,0,0-.75-4.69,24.61,24.61,0,0,1-6,4.86,2.54,2.54,0,0,0-1.26,3.19c.55,1.31,2.1,2.6,6.06,2.53,4.91-.09,5-2.35,4.35-4.06a2.85,2.85,0,0,0-2.43-1.83,2.32,2.32,0,0,0-1.32.25,1.86,1.86,0,0,0-1,1.31"/></g></svg>