<svg id="icons" xmlns="http://www.w3.org/2000/svg" viewBox="0 0 64 64"><defs><style>.cls-1{fill:none;stroke:#000;stroke-linecap:round;stroke-linejoin:round;stroke-width:2px;}</style></defs><g id="pizza"><path class="cls-1" d="M12.1,25.39,16.34,27l18.39,7.1L27.44,15.86l-1.7-4.26a24.63,24.63,0,0,1,9.38-1.85,25.1,25.1,0,1,1-23,15.64Z"/><path class="cls-1" d="M4,18.66,8.58,20.4a21.92,21.92,0,0,1,12-11.87L18.73,4A26.85,26.85,0,0,0,4,18.66Z"/><path class="cls-1" d="M14.8,34.87A20.33,20.33,0,1,0,35.12,14.34a20,20,0,0,0-7.68,1.52l7.29,18.27L16.34,27A20.41,20.41,0,0,0,14.8,34.87Z"/><ellipse class="cls-1" cx="40.32" cy="46.38" rx="2.03" ry="3.52" transform="translate(-15.46 20.59) rotate(-24.19)"/><ellipse class="cls-1" cx="23.73" cy="40.07" rx="3.49" ry="2.04" transform="translate(-14.54 13.53) rotate(-24.62)"/><ellipse class="cls-1" cx="46.52" cy="29.68" rx="3.49" ry="2.04" transform="translate(-8.14 22.08) rotate(-24.62)"/><ellipse class="cls-1" cx="30.75" cy="46.69" rx="3.51" ry="2.03" transform="translate(-23.67 59.49) rotate(-69.88)"/><ellipse class="cls-1" cx="39.51" cy="23.06" rx="3.51" ry="2.03" transform="translate(4.26 52.23) rotate(-69.88)"/><ellipse class="cls-1" cx="46.86" cy="39.34" rx="2.04" ry="3.5" transform="translate(-6.7 68.91) rotate(-68.92)"/><ellipse class="cls-1" cx="18.1" cy="17.68" rx="2.23" ry="3.85" transform="translate(-7.2 17.72) rotate(-44.42)"/><path class="cls-1" d="M8.58,20.4,28.44,28,20.56,8.53A21.92,21.92,0,0,0,8.58,20.4Z"/></g></svg>