<svg id="icons" xmlns="http://www.w3.org/2000/svg" viewBox="0 0 64 64"><defs><style>.cls-1{fill:none;stroke:#000;stroke-linecap:round;stroke-linejoin:round;stroke-width:2px;}</style></defs><g id="salad"><path class="cls-1" d="M22,47.39H42a1,1,0,0,1,1,1V52a0,0,0,0,1,0,0H21a0,0,0,0,1,0,0V48.38A1,1,0,0,1,22,47.39Z" transform="translate(63.99 99.39) rotate(180)"/><path class="cls-1" d="M43,48.15A29.91,29.91,0,0,0,60,31.74V28.38A1.41,1.41,0,0,0,58.58,27H5.42a.62.62,0,0,0-.19,0A1.38,1.38,0,0,0,4,28.38v3.36A30,30,0,0,0,21,48.15"/><polyline class="cls-1" points="60 31.74 10.83 31.74 7.16 31.74 4 31.74"/><path class="cls-1" d="M45.35,16.72a4,4,0,0,1,3.07-1.4,3.93,3.93,0,0,1,4,3.88v.07a4,4,0,0,1,3.23,3.42,3.89,3.89,0,0,1,2.76,3.7,2.92,2.92,0,0,1,0,.6"/><path class="cls-1" d="M29.07,27A3.81,3.81,0,0,0,31,23.68a3.88,3.88,0,0,0-2.54-3.63A4,4,0,0,0,27,19.78h0a3.6,3.6,0,0,0,0-.58A3.87,3.87,0,0,0,25,15.81a3.86,3.86,0,0,0-.71-2.14,4.05,4.05,0,0,0-5.8-.79,4,4,0,0,0-6.37,2A3.88,3.88,0,0,0,9,18.61a3.48,3.48,0,0,0,.09.79,3.9,3.9,0,0,0-2.75,3.7A3.83,3.83,0,0,0,6.84,25a3.94,3.94,0,0,0-1.61,2"/><path class="cls-1" d="M45.41,27a6.58,6.58,0,0,0,2.27-3.55l.09-.4a6.34,6.34,0,0,0,.1-1.16h0a6.55,6.55,0,0,0-2.52-5.15,6.88,6.88,0,0,0-4.28-1.47A6.76,6.76,0,0,0,36.52,17"/><path class="cls-1" d="M37,27a1.93,1.93,0,0,0,.06-.49,2.53,2.53,0,0,0-1-2,2.52,2.52,0,0,0,0-4.83,3.78,3.78,0,0,0,.52-1.92,3.59,3.59,0,0,0-.09-.81,3.88,3.88,0,0,0-3-2.93,3.41,3.41,0,0,0-.85-.1,4,4,0,0,0-2.15.63,2.7,2.7,0,0,1-3.82-.72,3.55,3.55,0,0,1-.21-.44,3.66,3.66,0,0,0-.65-.06,3.76,3.76,0,0,0-1.58.33"/><path class="cls-1" d="M19.91,27A12,12,0,0,0,15,18.25"/><path class="cls-1" d="M19.47,24.58a3,3,0,0,0,2.4-2.35"/><path class="cls-1" d="M18.71,22.63a10.89,10.89,0,0,1-5-1"/><line class="cls-1" x1="41.09" y1="19.65" x2="42.26" y2="18.5"/><line class="cls-1" x1="42.05" y1="23.45" x2="42.94" y2="24.32"/></g></svg>