<svg id="icons" xmlns="http://www.w3.org/2000/svg" viewBox="0 0 64 64"><defs><style>.cls-1{fill:none;stroke:#000;stroke-linecap:round;stroke-linejoin:round;stroke-width:2px;}</style></defs><g id="sauce"><path class="cls-1" d="M4,21.27a12.33,12.33,0,0,1,1.17-.85,15.07,15.07,0,0,1,15.88-.32,33.28,33.28,0,0,0,13.26,4,15.2,15.2,0,0,0,8.35-1.51c2.63-1.29,6.47-2.82,10-2.82,0,0-1.06,12.8-12.73,19.63H23.68S18.73,37.55,16,29.84C16,29.84,13.19,21.27,4,21.27Z"/><polyline class="cls-1" points="23.68 39.41 18.61 46 45.13 46 39.94 39.41"/><path class="cls-1" d="M52.67,19.78s23.11,4.89-12.73,19.63"/></g></svg>