<svg id="icons" xmlns="http://www.w3.org/2000/svg" viewBox="0 0 64 64"><defs><style>.cls-1{fill:none;stroke:#000;stroke-linecap:round;stroke-linejoin:round;stroke-width:2px;}</style></defs><g id="slice_of_pizza" data-name="slice of pizza"><polyline class="cls-1" points="10.26 38.41 60 60 38.91 10.27"/><path class="cls-1" d="M41.6,7.65a4.47,4.47,0,0,1-2.69,2.62A50.31,50.31,0,0,0,21.23,22a51.47,51.47,0,0,0-11,16.41A4.13,4.13,0,0,1,7.31,41a2.5,2.5,0,0,1-2.73-1.24,4.08,4.08,0,0,1-.35-3.46A50.8,50.8,0,0,1,16.29,17,49.63,49.63,0,0,1,37.05,4.21a4.53,4.53,0,0,1,3.1.13A2.4,2.4,0,0,1,41.6,7.65Z"/><ellipse class="cls-1" cx="23.07" cy="35.08" rx="4.27" ry="4.33"/><ellipse cx="36.45" cy="17.62" rx="1.76" ry="1.79"/><ellipse cx="32.34" cy="40.31" rx="1.76" ry="1.79"/><ellipse class="cls-1" cx="37.03" cy="28.45" rx="4.27" ry="4.33"/><ellipse class="cls-1" cx="43.13" cy="43.13" rx="4.27" ry="4.33"/><path class="cls-1" d="M29.44,22.19s-2.86,1.61-3.8,3.86"/><path class="cls-1" d="M51.19,49a6.32,6.32,0,0,0,.21,3.4"/><path class="cls-1" d="M45.19,34.63a6.05,6.05,0,0,0-3.33.46"/></g></svg>